solid OpenSCAD_Model
  facet normal -0.998026 -0.0628014 0
    outer loop
      vertex 0.75 0 3.8
      vertex 0.744085 0.0939999 6.8
      vertex 0.744085 0.0939999 3.8
    endloop
  endfacet
  facet normal -0.998026 -0.0628014 0
    outer loop
      vertex 0.744085 0.0939999 6.8
      vertex 0.75 0 3.8
      vertex 0.75 0 6.8
    endloop
  endfacet
  facet normal 0.998026 -0.0628014 0
    outer loop
      vertex -0.75 0 6.8
      vertex -0.744085 0.0939999 3.8
      vertex -0.744085 0.0939999 6.8
    endloop
  endfacet
  facet normal 0.998026 -0.0628014 0
    outer loop
      vertex -0.744085 0.0939999 3.8
      vertex -0.75 0 6.8
      vertex -0.75 0 3.8
    endloop
  endfacet
  facet normal 0 -1 0
    outer loop
      vertex -0.0470924 0.74852 3.8
      vertex 0.0470924 0.74852 6.8
      vertex -0.0470924 0.74852 6.8
    endloop
  endfacet
  facet normal 0 -1 -0
    outer loop
      vertex 0.0470924 0.74852 6.8
      vertex -0.0470924 0.74852 3.8
      vertex 0.0470924 0.74852 3.8
    endloop
  endfacet
  facet normal 0 1 -0
    outer loop
      vertex 0.0470924 -0.74852 3.8
      vertex -0.0470924 -0.74852 6.8
      vertex 0.0470924 -0.74852 6.8
    endloop
  endfacet
  facet normal 0 1 0
    outer loop
      vertex -0.0470924 -0.74852 6.8
      vertex 0.0470924 -0.74852 3.8
      vertex -0.0470924 -0.74852 3.8
    endloop
  endfacet
  facet normal -0.684547 -0.728969 0
    outer loop
      vertex 0.478067 0.577885 3.8
      vertex 0.546726 0.51341 6.8
      vertex 0.478067 0.577885 6.8
    endloop
  endfacet
  facet normal -0.684547 -0.728969 -0
    outer loop
      vertex 0.546726 0.51341 6.8
      vertex 0.478067 0.577885 3.8
      vertex 0.546726 0.51341 3.8
    endloop
  endfacet
  facet normal 0.684547 -0.728969 0
    outer loop
      vertex -0.546726 0.51341 3.8
      vertex -0.478067 0.577885 6.8
      vertex -0.546726 0.51341 6.8
    endloop
  endfacet
  facet normal 0.684547 -0.728969 0
    outer loop
      vertex -0.478067 0.577885 6.8
      vertex -0.546726 0.51341 3.8
      vertex -0.478067 0.577885 3.8
    endloop
  endfacet
  facet normal 0.368132 -0.929774 0
    outer loop
      vertex -0.319334 0.678619 3.8
      vertex -0.231762 0.713292 6.8
      vertex -0.319334 0.678619 6.8
    endloop
  endfacet
  facet normal 0.368132 -0.929774 0
    outer loop
      vertex -0.231762 0.713292 6.8
      vertex -0.319334 0.678619 3.8
      vertex -0.231762 0.713292 3.8
    endloop
  endfacet
  facet normal -0.904829 -0.425776 0
    outer loop
      vertex 0.697331 0.276093 3.8
      vertex 0.657229 0.361315 6.8
      vertex 0.657229 0.361315 3.8
    endloop
  endfacet
  facet normal -0.904829 -0.425776 0
    outer loop
      vertex 0.657229 0.361315 6.8
      vertex 0.697331 0.276093 3.8
      vertex 0.697331 0.276093 6.8
    endloop
  endfacet
  facet normal -0.982288 -0.187375 0
    outer loop
      vertex 0.744085 0.0939999 3.8
      vertex 0.726437 0.186517 6.8
      vertex 0.726437 0.186517 3.8
    endloop
  endfacet
  facet normal -0.982288 -0.187375 0
    outer loop
      vertex 0.726437 0.186517 6.8
      vertex 0.744085 0.0939999 3.8
      vertex 0.744085 0.0939999 6.8
    endloop
  endfacet
  facet normal -0.368132 -0.929774 0
    outer loop
      vertex 0.231762 0.713292 3.8
      vertex 0.319334 0.678619 6.8
      vertex 0.231762 0.713292 6.8
    endloop
  endfacet
  facet normal -0.368132 -0.929774 -0
    outer loop
      vertex 0.319334 0.678619 6.8
      vertex 0.231762 0.713292 3.8
      vertex 0.319334 0.678619 3.8
    endloop
  endfacet
  facet normal -0.248689 -0.968583 0
    outer loop
      vertex 0.140535 0.736715 3.8
      vertex 0.231762 0.713292 6.8
      vertex 0.140535 0.736715 6.8
    endloop
  endfacet
  facet normal -0.248689 -0.968583 -0
    outer loop
      vertex 0.231762 0.713292 6.8
      vertex 0.140535 0.736715 3.8
      vertex 0.231762 0.713292 3.8
    endloop
  endfacet
  facet normal -0.587783 -0.809019 0
    outer loop
      vertex 0.40187 0.633245 3.8
      vertex 0.478067 0.577885 6.8
      vertex 0.40187 0.633245 6.8
    endloop
  endfacet
  facet normal -0.587783 -0.809019 -0
    outer loop
      vertex 0.478067 0.577885 6.8
      vertex 0.40187 0.633245 3.8
      vertex 0.478067 0.577885 3.8
    endloop
  endfacet
  facet normal 0.904829 -0.425776 0
    outer loop
      vertex -0.697331 0.276093 6.8
      vertex -0.657229 0.361315 3.8
      vertex -0.657229 0.361315 6.8
    endloop
  endfacet
  facet normal 0.904829 -0.425776 0
    outer loop
      vertex -0.657229 0.361315 3.8
      vertex -0.697331 0.276093 6.8
      vertex -0.697331 0.276093 3.8
    endloop
  endfacet
  facet normal 0.951053 -0.309027 0
    outer loop
      vertex -0.726437 0.186517 6.8
      vertex -0.697331 0.276093 3.8
      vertex -0.697331 0.276093 6.8
    endloop
  endfacet
  facet normal 0.951053 -0.309027 0
    outer loop
      vertex -0.697331 0.276093 3.8
      vertex -0.726437 0.186517 6.8
      vertex -0.726437 0.186517 3.8
    endloop
  endfacet
  facet normal 0.481749 -0.876309 0
    outer loop
      vertex -0.40187 0.633245 3.8
      vertex -0.319334 0.678619 6.8
      vertex -0.40187 0.633245 6.8
    endloop
  endfacet
  facet normal 0.481749 -0.876309 0
    outer loop
      vertex -0.319334 0.678619 6.8
      vertex -0.40187 0.633245 3.8
      vertex -0.319334 0.678619 3.8
    endloop
  endfacet
  facet normal 0.248689 -0.968583 0
    outer loop
      vertex -0.231762 0.713292 3.8
      vertex -0.140535 0.736715 6.8
      vertex -0.231762 0.713292 6.8
    endloop
  endfacet
  facet normal 0.248689 -0.968583 0
    outer loop
      vertex -0.140535 0.736715 6.8
      vertex -0.231762 0.713292 3.8
      vertex -0.140535 0.736715 3.8
    endloop
  endfacet
  facet normal -0.125338 0.992114 0
    outer loop
      vertex 0.140535 -0.736715 3.8
      vertex 0.0470924 -0.74852 6.8
      vertex 0.140535 -0.736715 6.8
    endloop
  endfacet
  facet normal -0.125338 0.992114 0
    outer loop
      vertex 0.0470924 -0.74852 6.8
      vertex 0.140535 -0.736715 3.8
      vertex 0.0470924 -0.74852 3.8
    endloop
  endfacet
  facet normal -0.368132 0.929774 0
    outer loop
      vertex 0.319334 -0.678619 3.8
      vertex 0.231762 -0.713292 6.8
      vertex 0.319334 -0.678619 6.8
    endloop
  endfacet
  facet normal -0.368132 0.929774 0
    outer loop
      vertex 0.231762 -0.713292 6.8
      vertex 0.319334 -0.678619 3.8
      vertex 0.231762 -0.713292 3.8
    endloop
  endfacet
  facet normal -0.951053 -0.309027 0
    outer loop
      vertex 0.726437 0.186517 3.8
      vertex 0.697331 0.276093 6.8
      vertex 0.697331 0.276093 3.8
    endloop
  endfacet
  facet normal -0.951053 -0.309027 0
    outer loop
      vertex 0.697331 0.276093 6.8
      vertex 0.726437 0.186517 3.8
      vertex 0.726437 0.186517 6.8
    endloop
  endfacet
  facet normal -0.770513 -0.637424 0
    outer loop
      vertex 0.606762 0.440839 3.8
      vertex 0.546726 0.51341 6.8
      vertex 0.546726 0.51341 3.8
    endloop
  endfacet
  facet normal -0.770513 -0.637424 0
    outer loop
      vertex 0.546726 0.51341 6.8
      vertex 0.606762 0.440839 3.8
      vertex 0.606762 0.440839 6.8
    endloop
  endfacet
  facet normal -0.84433 -0.535823 0
    outer loop
      vertex 0.657229 0.361315 3.8
      vertex 0.606762 0.440839 6.8
      vertex 0.606762 0.440839 3.8
    endloop
  endfacet
  facet normal -0.84433 -0.535823 0
    outer loop
      vertex 0.606762 0.440839 6.8
      vertex 0.657229 0.361315 3.8
      vertex 0.657229 0.361315 6.8
    endloop
  endfacet
  facet normal -0.125338 -0.992114 0
    outer loop
      vertex 0.0470924 0.74852 3.8
      vertex 0.140535 0.736715 6.8
      vertex 0.0470924 0.74852 6.8
    endloop
  endfacet
  facet normal -0.125338 -0.992114 -0
    outer loop
      vertex 0.140535 0.736715 6.8
      vertex 0.0470924 0.74852 3.8
      vertex 0.140535 0.736715 3.8
    endloop
  endfacet
  facet normal -0.481749 -0.876309 0
    outer loop
      vertex 0.319334 0.678619 3.8
      vertex 0.40187 0.633245 6.8
      vertex 0.319334 0.678619 6.8
    endloop
  endfacet
  facet normal -0.481749 -0.876309 -0
    outer loop
      vertex 0.40187 0.633245 6.8
      vertex 0.319334 0.678619 3.8
      vertex 0.40187 0.633245 3.8
    endloop
  endfacet
  facet normal 0.84433 -0.535823 0
    outer loop
      vertex -0.657229 0.361315 6.8
      vertex -0.606762 0.440839 3.8
      vertex -0.606762 0.440839 6.8
    endloop
  endfacet
  facet normal 0.84433 -0.535823 0
    outer loop
      vertex -0.606762 0.440839 3.8
      vertex -0.657229 0.361315 6.8
      vertex -0.657229 0.361315 3.8
    endloop
  endfacet
  facet normal 0.770513 -0.637424 0
    outer loop
      vertex -0.606762 0.440839 6.8
      vertex -0.546726 0.51341 3.8
      vertex -0.546726 0.51341 6.8
    endloop
  endfacet
  facet normal 0.770513 -0.637424 0
    outer loop
      vertex -0.546726 0.51341 3.8
      vertex -0.606762 0.440839 6.8
      vertex -0.606762 0.440839 3.8
    endloop
  endfacet
  facet normal 0.982288 -0.187375 0
    outer loop
      vertex -0.744085 0.0939999 6.8
      vertex -0.726437 0.186517 3.8
      vertex -0.726437 0.186517 6.8
    endloop
  endfacet
  facet normal 0.982288 -0.187375 0
    outer loop
      vertex -0.726437 0.186517 3.8
      vertex -0.744085 0.0939999 6.8
      vertex -0.744085 0.0939999 3.8
    endloop
  endfacet
  facet normal 0.587783 -0.809019 0
    outer loop
      vertex -0.478067 0.577885 3.8
      vertex -0.40187 0.633245 6.8
      vertex -0.478067 0.577885 6.8
    endloop
  endfacet
  facet normal 0.587783 -0.809019 0
    outer loop
      vertex -0.40187 0.633245 6.8
      vertex -0.478067 0.577885 3.8
      vertex -0.40187 0.633245 3.8
    endloop
  endfacet
  facet normal 0.125338 -0.992114 0
    outer loop
      vertex -0.140535 0.736715 3.8
      vertex -0.0470924 0.74852 6.8
      vertex -0.140535 0.736715 6.8
    endloop
  endfacet
  facet normal 0.125338 -0.992114 0
    outer loop
      vertex -0.0470924 0.74852 6.8
      vertex -0.140535 0.736715 3.8
      vertex -0.0470924 0.74852 3.8
    endloop
  endfacet
  facet normal -0.998026 0.0628014 0
    outer loop
      vertex 0.744085 -0.0939999 3.8
      vertex 0.75 0 6.8
      vertex 0.75 0 3.8
    endloop
  endfacet
  facet normal -0.998026 0.0628014 0
    outer loop
      vertex 0.75 0 6.8
      vertex 0.744085 -0.0939999 3.8
      vertex 0.744085 -0.0939999 6.8
    endloop
  endfacet
  facet normal -0.684547 0.728969 0
    outer loop
      vertex 0.546726 -0.51341 3.8
      vertex 0.478067 -0.577885 6.8
      vertex 0.546726 -0.51341 6.8
    endloop
  endfacet
  facet normal -0.684547 0.728969 0
    outer loop
      vertex 0.478067 -0.577885 6.8
      vertex 0.546726 -0.51341 3.8
      vertex 0.478067 -0.577885 3.8
    endloop
  endfacet
  facet normal -0.982288 0.187375 0
    outer loop
      vertex 0.726437 -0.186517 3.8
      vertex 0.744085 -0.0939999 6.8
      vertex 0.744085 -0.0939999 3.8
    endloop
  endfacet
  facet normal -0.982288 0.187375 0
    outer loop
      vertex 0.744085 -0.0939999 6.8
      vertex 0.726437 -0.186517 3.8
      vertex 0.726437 -0.186517 6.8
    endloop
  endfacet
  facet normal 0 0 1
    outer loop
      vertex 0.744085 0.0939999 3.8
      vertex 0.744085 -0.0939999 3.8
      vertex 0.75 0 3.8
    endloop
  endfacet
  facet normal 0 0 1
    outer loop
      vertex 0.726437 0.186517 3.8
      vertex 0.744085 -0.0939999 3.8
      vertex 0.744085 0.0939999 3.8
    endloop
  endfacet
  facet normal 0 0 1
    outer loop
      vertex 0.726437 0.186517 3.8
      vertex 0.726437 -0.186517 3.8
      vertex 0.744085 -0.0939999 3.8
    endloop
  endfacet
  facet normal 0 0 1
    outer loop
      vertex 0.697331 0.276093 3.8
      vertex 0.726437 -0.186517 3.8
      vertex 0.726437 0.186517 3.8
    endloop
  endfacet
  facet normal 0 0 1
    outer loop
      vertex 0.697331 0.276093 3.8
      vertex 0.697331 -0.276093 3.8
      vertex 0.726437 -0.186517 3.8
    endloop
  endfacet
  facet normal 0 0 1
    outer loop
      vertex 0.657229 0.361315 3.8
      vertex 0.697331 -0.276093 3.8
      vertex 0.697331 0.276093 3.8
    endloop
  endfacet
  facet normal 0 0 1
    outer loop
      vertex 0.657229 0.361315 3.8
      vertex 0.657229 -0.361315 3.8
      vertex 0.697331 -0.276093 3.8
    endloop
  endfacet
  facet normal 0 0 1
    outer loop
      vertex 0.606762 0.440839 3.8
      vertex 0.657229 -0.361315 3.8
      vertex 0.657229 0.361315 3.8
    endloop
  endfacet
  facet normal 0 0 1
    outer loop
      vertex 0.606762 0.440839 3.8
      vertex 0.606762 -0.440839 3.8
      vertex 0.657229 -0.361315 3.8
    endloop
  endfacet
  facet normal 0 0 1
    outer loop
      vertex 0.546726 0.51341 3.8
      vertex 0.606762 -0.440839 3.8
      vertex 0.606762 0.440839 3.8
    endloop
  endfacet
  facet normal 0 0 1
    outer loop
      vertex 0.546726 0.51341 3.8
      vertex 0.546726 -0.51341 3.8
      vertex 0.606762 -0.440839 3.8
    endloop
  endfacet
  facet normal 0 0 1
    outer loop
      vertex 0.478067 0.577885 3.8
      vertex 0.546726 -0.51341 3.8
      vertex 0.546726 0.51341 3.8
    endloop
  endfacet
  facet normal 0 0 1
    outer loop
      vertex 0.478067 0.577885 3.8
      vertex 0.478067 -0.577885 3.8
      vertex 0.546726 -0.51341 3.8
    endloop
  endfacet
  facet normal 0 0 1
    outer loop
      vertex 0.40187 0.633245 3.8
      vertex 0.478067 -0.577885 3.8
      vertex 0.478067 0.577885 3.8
    endloop
  endfacet
  facet normal 0 0 1
    outer loop
      vertex 0.40187 0.633245 3.8
      vertex 0.40187 -0.633245 3.8
      vertex 0.478067 -0.577885 3.8
    endloop
  endfacet
  facet normal 0 0 1
    outer loop
      vertex 0.319334 0.678619 3.8
      vertex 0.40187 -0.633245 3.8
      vertex 0.40187 0.633245 3.8
    endloop
  endfacet
  facet normal 0 0 1
    outer loop
      vertex 0.319334 0.678619 3.8
      vertex 0.319334 -0.678619 3.8
      vertex 0.40187 -0.633245 3.8
    endloop
  endfacet
  facet normal 0 0 1
    outer loop
      vertex 0.231762 0.713292 3.8
      vertex 0.319334 -0.678619 3.8
      vertex 0.319334 0.678619 3.8
    endloop
  endfacet
  facet normal 0 0 1
    outer loop
      vertex 0.231762 0.713292 3.8
      vertex 0.231762 -0.713292 3.8
      vertex 0.319334 -0.678619 3.8
    endloop
  endfacet
  facet normal 0 0 1
    outer loop
      vertex 0.140535 0.736715 3.8
      vertex 0.231762 -0.713292 3.8
      vertex 0.231762 0.713292 3.8
    endloop
  endfacet
  facet normal 0 0 1
    outer loop
      vertex 0.140535 0.736715 3.8
      vertex 0.140535 -0.736715 3.8
      vertex 0.231762 -0.713292 3.8
    endloop
  endfacet
  facet normal 0 0 1
    outer loop
      vertex 0.0470924 0.74852 3.8
      vertex 0.140535 -0.736715 3.8
      vertex 0.140535 0.736715 3.8
    endloop
  endfacet
  facet normal 0 0 1
    outer loop
      vertex 0.0470924 0.74852 3.8
      vertex 0.0470924 -0.74852 3.8
      vertex 0.140535 -0.736715 3.8
    endloop
  endfacet
  facet normal -0 0 1
    outer loop
      vertex -0.0470924 0.74852 3.8
      vertex 0.0470924 -0.74852 3.8
      vertex 0.0470924 0.74852 3.8
    endloop
  endfacet
  facet normal 0 0 1
    outer loop
      vertex -0.0470924 0.74852 3.8
      vertex -0.0470924 -0.74852 3.8
      vertex 0.0470924 -0.74852 3.8
    endloop
  endfacet
  facet normal -0 0 1
    outer loop
      vertex -0.140535 0.736715 3.8
      vertex -0.0470924 -0.74852 3.8
      vertex -0.0470924 0.74852 3.8
    endloop
  endfacet
  facet normal 0 0 1
    outer loop
      vertex -0.140535 0.736715 3.8
      vertex -0.140535 -0.736715 3.8
      vertex -0.0470924 -0.74852 3.8
    endloop
  endfacet
  facet normal -0 0 1
    outer loop
      vertex -0.231762 0.713292 3.8
      vertex -0.140535 -0.736715 3.8
      vertex -0.140535 0.736715 3.8
    endloop
  endfacet
  facet normal 0 0 1
    outer loop
      vertex -0.231762 0.713292 3.8
      vertex -0.231762 -0.713292 3.8
      vertex -0.140535 -0.736715 3.8
    endloop
  endfacet
  facet normal -0 0 1
    outer loop
      vertex -0.319334 0.678619 3.8
      vertex -0.231762 -0.713292 3.8
      vertex -0.231762 0.713292 3.8
    endloop
  endfacet
  facet normal 0 0 1
    outer loop
      vertex -0.319334 0.678619 3.8
      vertex -0.319334 -0.678619 3.8
      vertex -0.231762 -0.713292 3.8
    endloop
  endfacet
  facet normal -0 0 1
    outer loop
      vertex -0.40187 0.633245 3.8
      vertex -0.319334 -0.678619 3.8
      vertex -0.319334 0.678619 3.8
    endloop
  endfacet
  facet normal 0 0 1
    outer loop
      vertex -0.40187 0.633245 3.8
      vertex -0.40187 -0.633245 3.8
      vertex -0.319334 -0.678619 3.8
    endloop
  endfacet
  facet normal -0 0 1
    outer loop
      vertex -0.478067 0.577885 3.8
      vertex -0.40187 -0.633245 3.8
      vertex -0.40187 0.633245 3.8
    endloop
  endfacet
  facet normal 0 0 1
    outer loop
      vertex -0.478067 0.577885 3.8
      vertex -0.478067 -0.577885 3.8
      vertex -0.40187 -0.633245 3.8
    endloop
  endfacet
  facet normal -0 0 1
    outer loop
      vertex -0.546726 0.51341 3.8
      vertex -0.478067 -0.577885 3.8
      vertex -0.478067 0.577885 3.8
    endloop
  endfacet
  facet normal 0 0 1
    outer loop
      vertex -0.546726 0.51341 3.8
      vertex -0.546726 -0.51341 3.8
      vertex -0.478067 -0.577885 3.8
    endloop
  endfacet
  facet normal -0 0 1
    outer loop
      vertex -0.606762 0.440839 3.8
      vertex -0.546726 -0.51341 3.8
      vertex -0.546726 0.51341 3.8
    endloop
  endfacet
  facet normal 0 0 1
    outer loop
      vertex -0.606762 0.440839 3.8
      vertex -0.606762 -0.440839 3.8
      vertex -0.546726 -0.51341 3.8
    endloop
  endfacet
  facet normal -0 0 1
    outer loop
      vertex -0.657229 0.361315 3.8
      vertex -0.606762 -0.440839 3.8
      vertex -0.606762 0.440839 3.8
    endloop
  endfacet
  facet normal 0 0 1
    outer loop
      vertex -0.657229 0.361315 3.8
      vertex -0.657229 -0.361315 3.8
      vertex -0.606762 -0.440839 3.8
    endloop
  endfacet
  facet normal -0 0 1
    outer loop
      vertex -0.697331 0.276093 3.8
      vertex -0.657229 -0.361315 3.8
      vertex -0.657229 0.361315 3.8
    endloop
  endfacet
  facet normal 0 0 1
    outer loop
      vertex -0.697331 0.276093 3.8
      vertex -0.697331 -0.276093 3.8
      vertex -0.657229 -0.361315 3.8
    endloop
  endfacet
  facet normal -0 0 1
    outer loop
      vertex -0.726437 0.186517 3.8
      vertex -0.697331 -0.276093 3.8
      vertex -0.697331 0.276093 3.8
    endloop
  endfacet
  facet normal 0 0 1
    outer loop
      vertex -0.726437 0.186517 3.8
      vertex -0.726437 -0.186517 3.8
      vertex -0.697331 -0.276093 3.8
    endloop
  endfacet
  facet normal -0 0 1
    outer loop
      vertex -0.744085 0.0939999 3.8
      vertex -0.726437 -0.186517 3.8
      vertex -0.726437 0.186517 3.8
    endloop
  endfacet
  facet normal 0 0 1
    outer loop
      vertex -0.744085 0.0939999 3.8
      vertex -0.744085 -0.0939999 3.8
      vertex -0.726437 -0.186517 3.8
    endloop
  endfacet
  facet normal 0 -0 1
    outer loop
      vertex -0.744085 -0.0939999 3.8
      vertex -0.744085 0.0939999 3.8
      vertex -0.75 0 3.8
    endloop
  endfacet
  facet normal -0.481749 0.876309 0
    outer loop
      vertex 0.40187 -0.633245 3.8
      vertex 0.319334 -0.678619 6.8
      vertex 0.40187 -0.633245 6.8
    endloop
  endfacet
  facet normal -0.481749 0.876309 0
    outer loop
      vertex 0.319334 -0.678619 6.8
      vertex 0.40187 -0.633245 3.8
      vertex 0.319334 -0.678619 3.8
    endloop
  endfacet
  facet normal -0.587783 0.809019 0
    outer loop
      vertex 0.478067 -0.577885 3.8
      vertex 0.40187 -0.633245 6.8
      vertex 0.478067 -0.577885 6.8
    endloop
  endfacet
  facet normal -0.587783 0.809019 0
    outer loop
      vertex 0.40187 -0.633245 6.8
      vertex 0.478067 -0.577885 3.8
      vertex 0.40187 -0.633245 3.8
    endloop
  endfacet
  facet normal -0.904829 0.425776 0
    outer loop
      vertex 0.657229 -0.361315 3.8
      vertex 0.697331 -0.276093 6.8
      vertex 0.697331 -0.276093 3.8
    endloop
  endfacet
  facet normal -0.904829 0.425776 0
    outer loop
      vertex 0.697331 -0.276093 6.8
      vertex 0.657229 -0.361315 3.8
      vertex 0.657229 -0.361315 6.8
    endloop
  endfacet
  facet normal -0.770513 0.637424 0
    outer loop
      vertex 0.546726 -0.51341 3.8
      vertex 0.606762 -0.440839 6.8
      vertex 0.606762 -0.440839 3.8
    endloop
  endfacet
  facet normal -0.770513 0.637424 0
    outer loop
      vertex 0.606762 -0.440839 6.8
      vertex 0.546726 -0.51341 3.8
      vertex 0.546726 -0.51341 6.8
    endloop
  endfacet
  facet normal 0.248689 0.968583 -0
    outer loop
      vertex -0.140535 -0.736715 3.8
      vertex -0.231762 -0.713292 6.8
      vertex -0.140535 -0.736715 6.8
    endloop
  endfacet
  facet normal 0.248689 0.968583 0
    outer loop
      vertex -0.231762 -0.713292 6.8
      vertex -0.140535 -0.736715 3.8
      vertex -0.231762 -0.713292 3.8
    endloop
  endfacet
  facet normal 0.684547 0.728969 -0
    outer loop
      vertex -0.478067 -0.577885 3.8
      vertex -0.546726 -0.51341 6.8
      vertex -0.478067 -0.577885 6.8
    endloop
  endfacet
  facet normal 0.684547 0.728969 0
    outer loop
      vertex -0.546726 -0.51341 6.8
      vertex -0.478067 -0.577885 3.8
      vertex -0.546726 -0.51341 3.8
    endloop
  endfacet
  facet normal 0.84433 0.535823 0
    outer loop
      vertex -0.606762 -0.440839 6.8
      vertex -0.657229 -0.361315 3.8
      vertex -0.657229 -0.361315 6.8
    endloop
  endfacet
  facet normal 0.84433 0.535823 0
    outer loop
      vertex -0.657229 -0.361315 3.8
      vertex -0.606762 -0.440839 6.8
      vertex -0.606762 -0.440839 3.8
    endloop
  endfacet
  facet normal 0.951053 0.309027 0
    outer loop
      vertex -0.697331 -0.276093 6.8
      vertex -0.726437 -0.186517 3.8
      vertex -0.726437 -0.186517 6.8
    endloop
  endfacet
  facet normal 0.951053 0.309027 0
    outer loop
      vertex -0.726437 -0.186517 3.8
      vertex -0.697331 -0.276093 6.8
      vertex -0.697331 -0.276093 3.8
    endloop
  endfacet
  facet normal -0.248689 0.968583 0
    outer loop
      vertex 0.231762 -0.713292 3.8
      vertex 0.140535 -0.736715 6.8
      vertex 0.231762 -0.713292 6.8
    endloop
  endfacet
  facet normal -0.248689 0.968583 0
    outer loop
      vertex 0.140535 -0.736715 6.8
      vertex 0.231762 -0.713292 3.8
      vertex 0.140535 -0.736715 3.8
    endloop
  endfacet
  facet normal -0.951053 0.309027 0
    outer loop
      vertex 0.697331 -0.276093 3.8
      vertex 0.726437 -0.186517 6.8
      vertex 0.726437 -0.186517 3.8
    endloop
  endfacet
  facet normal -0.951053 0.309027 0
    outer loop
      vertex 0.726437 -0.186517 6.8
      vertex 0.697331 -0.276093 3.8
      vertex 0.697331 -0.276093 6.8
    endloop
  endfacet
  facet normal -0.84433 0.535823 0
    outer loop
      vertex 0.606762 -0.440839 3.8
      vertex 0.657229 -0.361315 6.8
      vertex 0.657229 -0.361315 3.8
    endloop
  endfacet
  facet normal -0.84433 0.535823 0
    outer loop
      vertex 0.657229 -0.361315 6.8
      vertex 0.606762 -0.440839 3.8
      vertex 0.606762 -0.440839 6.8
    endloop
  endfacet
  facet normal 0.125338 0.992114 -0
    outer loop
      vertex -0.0470924 -0.74852 3.8
      vertex -0.140535 -0.736715 6.8
      vertex -0.0470924 -0.74852 6.8
    endloop
  endfacet
  facet normal 0.125338 0.992114 0
    outer loop
      vertex -0.140535 -0.736715 6.8
      vertex -0.0470924 -0.74852 3.8
      vertex -0.140535 -0.736715 3.8
    endloop
  endfacet
  facet normal 0.368132 0.929774 -0
    outer loop
      vertex -0.231762 -0.713292 3.8
      vertex -0.319334 -0.678619 6.8
      vertex -0.231762 -0.713292 6.8
    endloop
  endfacet
  facet normal 0.368132 0.929774 0
    outer loop
      vertex -0.319334 -0.678619 6.8
      vertex -0.231762 -0.713292 3.8
      vertex -0.319334 -0.678619 3.8
    endloop
  endfacet
  facet normal 0.770513 0.637424 0
    outer loop
      vertex -0.546726 -0.51341 6.8
      vertex -0.606762 -0.440839 3.8
      vertex -0.606762 -0.440839 6.8
    endloop
  endfacet
  facet normal 0.770513 0.637424 0
    outer loop
      vertex -0.606762 -0.440839 3.8
      vertex -0.546726 -0.51341 6.8
      vertex -0.546726 -0.51341 3.8
    endloop
  endfacet
  facet normal 0.904829 0.425776 0
    outer loop
      vertex -0.657229 -0.361315 6.8
      vertex -0.697331 -0.276093 3.8
      vertex -0.697331 -0.276093 6.8
    endloop
  endfacet
  facet normal 0.904829 0.425776 0
    outer loop
      vertex -0.697331 -0.276093 3.8
      vertex -0.657229 -0.361315 6.8
      vertex -0.657229 -0.361315 3.8
    endloop
  endfacet
  facet normal 0.982288 0.187375 0
    outer loop
      vertex -0.726437 -0.186517 6.8
      vertex -0.744085 -0.0939999 3.8
      vertex -0.744085 -0.0939999 6.8
    endloop
  endfacet
  facet normal 0.982288 0.187375 0
    outer loop
      vertex -0.744085 -0.0939999 3.8
      vertex -0.726437 -0.186517 6.8
      vertex -0.726437 -0.186517 3.8
    endloop
  endfacet
  facet normal 0.998026 0.0628014 0
    outer loop
      vertex -0.744085 -0.0939999 6.8
      vertex -0.75 0 3.8
      vertex -0.75 0 6.8
    endloop
  endfacet
  facet normal 0.998026 0.0628014 0
    outer loop
      vertex -0.75 0 3.8
      vertex -0.744085 -0.0939999 6.8
      vertex -0.744085 -0.0939999 3.8
    endloop
  endfacet
  facet normal 0.481749 0.876309 -0
    outer loop
      vertex -0.319334 -0.678619 3.8
      vertex -0.40187 -0.633245 6.8
      vertex -0.319334 -0.678619 6.8
    endloop
  endfacet
  facet normal 0.481749 0.876309 0
    outer loop
      vertex -0.40187 -0.633245 6.8
      vertex -0.319334 -0.678619 3.8
      vertex -0.40187 -0.633245 3.8
    endloop
  endfacet
  facet normal 0.587783 0.809019 -0
    outer loop
      vertex -0.40187 -0.633245 3.8
      vertex -0.478067 -0.577885 6.8
      vertex -0.40187 -0.633245 6.8
    endloop
  endfacet
  facet normal 0.587783 0.809019 0
    outer loop
      vertex -0.478067 -0.577885 6.8
      vertex -0.40187 -0.633245 3.8
      vertex -0.478067 -0.577885 3.8
    endloop
  endfacet
  facet normal -0.905055 -0.425294 0
    outer loop
      vertex 5.02079 1.98787 6.8
      vertex 5.01509 2 9.5
      vertex 5.01509 2 6.8
    endloop
  endfacet
  facet normal -0.905055 -0.425294 0
    outer loop
      vertex 5.01509 2 9.5
      vertex 5.02079 1.98787 6.8
      vertex 5.02079 1.98787 9.5
    endloop
  endfacet
  facet normal -0.998027 0.0627897 0
    outer loop
      vertex 5.35742 -0.676799 6.8
      vertex 5.4 0 9.5
      vertex 5.4 0 6.8
    endloop
  endfacet
  facet normal -0.998027 0.0627897 0
    outer loop
      vertex 5.4 0 9.5
      vertex 5.35742 -0.676799 6.8
      vertex 5.35742 -0.676799 9.5
    endloop
  endfacet
  facet normal 0.905055 -0.425294 0
    outer loop
      vertex -5.02079 1.98787 9.5
      vertex -5.01509 2 6.8
      vertex -5.01509 2 9.5
    endloop
  endfacet
  facet normal 0.905055 -0.425294 0
    outer loop
      vertex -5.01509 2 6.8
      vertex -5.02079 1.98787 9.5
      vertex -5.02079 1.98787 6.8
    endloop
  endfacet
  facet normal 0.998027 -0.0627897 0
    outer loop
      vertex -5.4 0 9.5
      vertex -5.35742 0.676799 6.8
      vertex -5.35742 0.676799 9.5
    endloop
  endfacet
  facet normal 0.998027 -0.0627897 0
    outer loop
      vertex -5.35742 0.676799 6.8
      vertex -5.4 0 9.5
      vertex -5.4 0 6.8
    endloop
  endfacet
  facet normal -0.982288 -0.187379 0
    outer loop
      vertex 5.35742 0.676799 6.8
      vertex 5.23035 1.34293 9.5
      vertex 5.23035 1.34293 6.8
    endloop
  endfacet
  facet normal -0.982288 -0.187379 0
    outer loop
      vertex 5.23035 1.34293 9.5
      vertex 5.35742 0.676799 6.8
      vertex 5.35742 0.676799 9.5
    endloop
  endfacet
  facet normal -0.951054 -0.309025 0
    outer loop
      vertex 5.23035 1.34293 6.8
      vertex 5.02079 1.98787 9.5
      vertex 5.02079 1.98787 6.8
    endloop
  endfacet
  facet normal -0.951054 -0.309025 0
    outer loop
      vertex 5.02079 1.98787 9.5
      vertex 5.23035 1.34293 6.8
      vertex 5.23035 1.34293 9.5
    endloop
  endfacet
  facet normal 0.951054 -0.309025 0
    outer loop
      vertex -5.23035 1.34293 9.5
      vertex -5.02079 1.98787 6.8
      vertex -5.02079 1.98787 9.5
    endloop
  endfacet
  facet normal 0.951054 -0.309025 0
    outer loop
      vertex -5.02079 1.98787 6.8
      vertex -5.23035 1.34293 9.5
      vertex -5.23035 1.34293 6.8
    endloop
  endfacet
  facet normal 0.982288 -0.187379 0
    outer loop
      vertex -5.35742 0.676799 9.5
      vertex -5.23035 1.34293 6.8
      vertex -5.23035 1.34293 9.5
    endloop
  endfacet
  facet normal 0.982288 -0.187379 0
    outer loop
      vertex -5.23035 1.34293 6.8
      vertex -5.35742 0.676799 9.5
      vertex -5.35742 0.676799 6.8
    endloop
  endfacet
  facet normal -0.998027 -0.0627897 0
    outer loop
      vertex 5.4 0 6.8
      vertex 5.35742 0.676799 9.5
      vertex 5.35742 0.676799 6.8
    endloop
  endfacet
  facet normal -0.998027 -0.0627897 0
    outer loop
      vertex 5.35742 0.676799 9.5
      vertex 5.4 0 6.8
      vertex 5.4 0 9.5
    endloop
  endfacet
  facet normal -0.951054 0.309025 0
    outer loop
      vertex 5.02079 -1.98787 6.8
      vertex 5.23035 -1.34293 9.5
      vertex 5.23035 -1.34293 6.8
    endloop
  endfacet
  facet normal -0.951054 0.309025 0
    outer loop
      vertex 5.23035 -1.34293 9.5
      vertex 5.02079 -1.98787 6.8
      vertex 5.02079 -1.98787 9.5
    endloop
  endfacet
  facet normal 0 1 -0
    outer loop
      vertex 0.339068 -5.38934 6.8
      vertex -0.339068 -5.38934 9.5
      vertex 0.339068 -5.38934 9.5
    endloop
  endfacet
  facet normal 0 1 0
    outer loop
      vertex -0.339068 -5.38934 9.5
      vertex 0.339068 -5.38934 6.8
      vertex -0.339068 -5.38934 6.8
    endloop
  endfacet
  facet normal 0 0 1
    outer loop
      vertex 0.75 0 6.8
      vertex 5.4 0 6.8
      vertex 5.35742 0.676799 6.8
    endloop
  endfacet
  facet normal 0 0 1
    outer loop
      vertex 0.744085 0.0939999 6.8
      vertex 5.35742 0.676799 6.8
      vertex 5.23035 1.34293 6.8
    endloop
  endfacet
  facet normal 0 0 1
    outer loop
      vertex 5.4 0 6.8
      vertex 0.75 0 6.8
      vertex 5.35742 -0.676799 6.8
    endloop
  endfacet
  facet normal 0 0 1
    outer loop
      vertex 0.726437 0.186517 6.8
      vertex 5.23035 1.34293 6.8
      vertex 5.02079 1.98787 6.8
    endloop
  endfacet
  facet normal -0 0 1
    outer loop
      vertex 0.744085 -0.0939999 6.8
      vertex 5.35742 -0.676799 6.8
      vertex 0.75 0 6.8
    endloop
  endfacet
  facet normal 0 0 1
    outer loop
      vertex 0.697331 0.276093 6.8
      vertex 5.02079 1.98787 6.8
      vertex 5.01509 2 6.8
    endloop
  endfacet
  facet normal 0 0 1
    outer loop
      vertex 5.35742 -0.676799 6.8
      vertex 0.744085 -0.0939999 6.8
      vertex 5.23035 -1.34293 6.8
    endloop
  endfacet
  facet normal 0 0 1
    outer loop
      vertex 5.23035 -1.34293 6.8
      vertex 0.726437 -0.186517 6.8
      vertex 5.02079 -1.98787 6.8
    endloop
  endfacet
  facet normal -0 0 1
    outer loop
      vertex 0.697331 -0.276093 6.8
      vertex 5.02079 -1.98787 6.8
      vertex 0.726437 -0.186517 6.8
    endloop
  endfacet
  facet normal -0 0 1
    outer loop
      vertex 0.657229 -0.361315 6.8
      vertex 4.73206 -2.60147 6.8
      vertex 0.697331 -0.276093 6.8
    endloop
  endfacet
  facet normal 0 0 1
    outer loop
      vertex 4.73206 -2.60147 6.8
      vertex 0.657229 -0.361315 6.8
      vertex 4.36869 -3.17404 6.8
    endloop
  endfacet
  facet normal 0 0 1
    outer loop
      vertex 4.36869 -3.17404 6.8
      vertex 0.606762 -0.440839 6.8
      vertex 3.93643 -3.69655 6.8
    endloop
  endfacet
  facet normal -0 0 1
    outer loop
      vertex 0.546726 -0.51341 6.8
      vertex 3.93643 -3.69655 6.8
      vertex 0.606762 -0.440839 6.8
    endloop
  endfacet
  facet normal -0 0 1
    outer loop
      vertex 0.478067 -0.577885 6.8
      vertex 3.44209 -4.16077 6.8
      vertex 0.546726 -0.51341 6.8
    endloop
  endfacet
  facet normal -0 0 1
    outer loop
      vertex 0.726437 -0.186517 6.8
      vertex 5.23035 -1.34293 6.8
      vertex 0.744085 -0.0939999 6.8
    endloop
  endfacet
  facet normal 0 0 1
    outer loop
      vertex 5.35742 0.676799 6.8
      vertex 0.744085 0.0939999 6.8
      vertex 0.75 0 6.8
    endloop
  endfacet
  facet normal 0 0 1
    outer loop
      vertex 5.23035 1.34293 6.8
      vertex 0.726437 0.186517 6.8
      vertex 0.744085 0.0939999 6.8
    endloop
  endfacet
  facet normal 0 0 1
    outer loop
      vertex 5.02079 1.98787 6.8
      vertex 0.697331 0.276093 6.8
      vertex 0.726437 0.186517 6.8
    endloop
  endfacet
  facet normal 0 0 1
    outer loop
      vertex 5.01509 2 6.8
      vertex 0.657229 0.361315 6.8
      vertex 0.697331 0.276093 6.8
    endloop
  endfacet
  facet normal 0 0 1
    outer loop
      vertex 5.01509 2 6.8
      vertex 0.606762 0.440839 6.8
      vertex 0.657229 0.361315 6.8
    endloop
  endfacet
  facet normal 0 0 1
    outer loop
      vertex 5.01509 2 6.8
      vertex 0.546726 0.51341 6.8
      vertex 0.606762 0.440839 6.8
    endloop
  endfacet
  facet normal 0 0 1
    outer loop
      vertex 5.01509 2 6.8
      vertex 0.478067 0.577885 6.8
      vertex 0.546726 0.51341 6.8
    endloop
  endfacet
  facet normal 0 0 1
    outer loop
      vertex 5.01509 2 6.8
      vertex 0.40187 0.633245 6.8
      vertex 0.478067 0.577885 6.8
    endloop
  endfacet
  facet normal 0 0 1
    outer loop
      vertex 5.01509 2 6.8
      vertex 0.319334 0.678619 6.8
      vertex 0.40187 0.633245 6.8
    endloop
  endfacet
  facet normal 0 0 1
    outer loop
      vertex 5.01509 2 6.8
      vertex 0.231762 0.713292 6.8
      vertex 0.319334 0.678619 6.8
    endloop
  endfacet
  facet normal 0 0 1
    outer loop
      vertex 5.01509 2 6.8
      vertex 0.140535 0.736715 6.8
      vertex 0.231762 0.713292 6.8
    endloop
  endfacet
  facet normal 0 0 1
    outer loop
      vertex 5.01509 2 6.8
      vertex 0.0470924 0.74852 6.8
      vertex 0.140535 0.736715 6.8
    endloop
  endfacet
  facet normal 0 0 1
    outer loop
      vertex 5.01509 2 6.8
      vertex -0.0470924 0.74852 6.8
      vertex 0.0470924 0.74852 6.8
    endloop
  endfacet
  facet normal -0 0 1
    outer loop
      vertex -5.01509 2 6.8
      vertex -0.0470924 0.74852 6.8
      vertex 5.01509 2 6.8
    endloop
  endfacet
  facet normal 0 0 1
    outer loop
      vertex -0.231762 -0.713292 6.8
      vertex -1.66869 -5.1357 6.8
      vertex -1.01186 -5.30435 6.8
    endloop
  endfacet
  facet normal 0 0 1
    outer loop
      vertex -5.4 0 6.8
      vertex -0.75 0 6.8
      vertex -0.744085 0.0939999 6.8
    endloop
  endfacet
  facet normal 0 0 1
    outer loop
      vertex -0.744085 -0.0939999 6.8
      vertex -2.29921 -4.88607 6.8
      vertex -1.66869 -5.1357 6.8
    endloop
  endfacet
  facet normal 0 0 1
    outer loop
      vertex -5.35742 0.676799 6.8
      vertex -0.744085 0.0939999 6.8
      vertex -0.726437 0.186517 6.8
    endloop
  endfacet
  facet normal 0 0 1
    outer loop
      vertex -0.744085 -0.0939999 6.8
      vertex -2.89346 -4.55937 6.8
      vertex -2.29921 -4.88607 6.8
    endloop
  endfacet
  facet normal 0 0 1
    outer loop
      vertex -5.23035 1.34293 6.8
      vertex -0.726437 0.186517 6.8
      vertex -0.697331 0.276093 6.8
    endloop
  endfacet
  facet normal 0 0 1
    outer loop
      vertex -0.744085 -0.0939999 6.8
      vertex -3.44209 -4.16077 6.8
      vertex -2.89346 -4.55937 6.8
    endloop
  endfacet
  facet normal 0 0 1
    outer loop
      vertex -5.01509 2 6.8
      vertex -0.697331 0.276093 6.8
      vertex -0.657229 0.361315 6.8
    endloop
  endfacet
  facet normal 0 0 1
    outer loop
      vertex -0.744085 -0.0939999 6.8
      vertex -3.93643 -3.69655 6.8
      vertex -3.44209 -4.16077 6.8
    endloop
  endfacet
  facet normal 0 0 1
    outer loop
      vertex -5.01509 2 6.8
      vertex -0.657229 0.361315 6.8
      vertex -0.606762 0.440839 6.8
    endloop
  endfacet
  facet normal 0 0 1
    outer loop
      vertex -0.744085 -0.0939999 6.8
      vertex -4.36869 -3.17404 6.8
      vertex -3.93643 -3.69655 6.8
    endloop
  endfacet
  facet normal 0 0 1
    outer loop
      vertex -5.01509 2 6.8
      vertex -0.606762 0.440839 6.8
      vertex -0.546726 0.51341 6.8
    endloop
  endfacet
  facet normal 0 0 1
    outer loop
      vertex -0.744085 -0.0939999 6.8
      vertex -4.73206 -2.60147 6.8
      vertex -4.36869 -3.17404 6.8
    endloop
  endfacet
  facet normal 0 0 1
    outer loop
      vertex -5.01509 2 6.8
      vertex -0.546726 0.51341 6.8
      vertex -0.478067 0.577885 6.8
    endloop
  endfacet
  facet normal 0 0 1
    outer loop
      vertex -0.0470924 0.74852 6.8
      vertex -5.01509 2 6.8
      vertex -0.140535 0.736715 6.8
    endloop
  endfacet
  facet normal 0 0 1
    outer loop
      vertex -5.01509 2 6.8
      vertex -0.231762 0.713292 6.8
      vertex -0.140535 0.736715 6.8
    endloop
  endfacet
  facet normal 0 0 1
    outer loop
      vertex -5.01509 2 6.8
      vertex -0.319334 0.678619 6.8
      vertex -0.231762 0.713292 6.8
    endloop
  endfacet
  facet normal 0 0 1
    outer loop
      vertex -5.01509 2 6.8
      vertex -0.40187 0.633245 6.8
      vertex -0.319334 0.678619 6.8
    endloop
  endfacet
  facet normal 0 0 1
    outer loop
      vertex -5.01509 2 6.8
      vertex -0.478067 0.577885 6.8
      vertex -0.40187 0.633245 6.8
    endloop
  endfacet
  facet normal 0 0 1
    outer loop
      vertex -0.697331 0.276093 6.8
      vertex -5.01509 2 6.8
      vertex -5.02079 1.98787 6.8
    endloop
  endfacet
  facet normal 0 0 1
    outer loop
      vertex -0.697331 0.276093 6.8
      vertex -5.02079 1.98787 6.8
      vertex -5.23035 1.34293 6.8
    endloop
  endfacet
  facet normal 0 0 1
    outer loop
      vertex -0.744085 -0.0939999 6.8
      vertex -5.02079 -1.98787 6.8
      vertex -4.73206 -2.60147 6.8
    endloop
  endfacet
  facet normal 0 0 1
    outer loop
      vertex -0.726437 0.186517 6.8
      vertex -5.23035 1.34293 6.8
      vertex -5.35742 0.676799 6.8
    endloop
  endfacet
  facet normal 0 0 1
    outer loop
      vertex -0.744085 -0.0939999 6.8
      vertex -5.23035 -1.34293 6.8
      vertex -5.02079 -1.98787 6.8
    endloop
  endfacet
  facet normal 0 0 1
    outer loop
      vertex -0.744085 0.0939999 6.8
      vertex -5.35742 0.676799 6.8
      vertex -5.4 0 6.8
    endloop
  endfacet
  facet normal 0 0 1
    outer loop
      vertex -0.744085 -0.0939999 6.8
      vertex -5.35742 -0.676799 6.8
      vertex -5.23035 -1.34293 6.8
    endloop
  endfacet
  facet normal 0 0 1
    outer loop
      vertex -0.75 0 6.8
      vertex -5.4 0 6.8
      vertex -5.35742 -0.676799 6.8
    endloop
  endfacet
  facet normal 0 0 1
    outer loop
      vertex 5.02079 -1.98787 6.8
      vertex 0.697331 -0.276093 6.8
      vertex 4.73206 -2.60147 6.8
    endloop
  endfacet
  facet normal -0 0 1
    outer loop
      vertex 0.606762 -0.440839 6.8
      vertex 4.36869 -3.17404 6.8
      vertex 0.657229 -0.361315 6.8
    endloop
  endfacet
  facet normal 0 0 1
    outer loop
      vertex 3.93643 -3.69655 6.8
      vertex 0.546726 -0.51341 6.8
      vertex 3.44209 -4.16077 6.8
    endloop
  endfacet
  facet normal 0 0 1
    outer loop
      vertex 3.44209 -4.16077 6.8
      vertex 0.478067 -0.577885 6.8
      vertex 2.89346 -4.55937 6.8
    endloop
  endfacet
  facet normal -0 0 1
    outer loop
      vertex 0.40187 -0.633245 6.8
      vertex 2.89346 -4.55937 6.8
      vertex 0.478067 -0.577885 6.8
    endloop
  endfacet
  facet normal 0 0 1
    outer loop
      vertex 2.89346 -4.55937 6.8
      vertex 0.40187 -0.633245 6.8
      vertex 2.29921 -4.88607 6.8
    endloop
  endfacet
  facet normal -0 0 1
    outer loop
      vertex 0.319334 -0.678619 6.8
      vertex 2.29921 -4.88607 6.8
      vertex 0.40187 -0.633245 6.8
    endloop
  endfacet
  facet normal 0 0 1
    outer loop
      vertex 2.29921 -4.88607 6.8
      vertex 0.319334 -0.678619 6.8
      vertex 1.66869 -5.1357 6.8
    endloop
  endfacet
  facet normal -0 0 1
    outer loop
      vertex 0.231762 -0.713292 6.8
      vertex 1.66869 -5.1357 6.8
      vertex 0.319334 -0.678619 6.8
    endloop
  endfacet
  facet normal 0 0 1
    outer loop
      vertex 1.66869 -5.1357 6.8
      vertex 0.231762 -0.713292 6.8
      vertex 1.01186 -5.30435 6.8
    endloop
  endfacet
  facet normal -0 0 1
    outer loop
      vertex 0.140535 -0.736715 6.8
      vertex 1.01186 -5.30435 6.8
      vertex 0.231762 -0.713292 6.8
    endloop
  endfacet
  facet normal 0 0 1
    outer loop
      vertex 1.01186 -5.30435 6.8
      vertex 0.140535 -0.736715 6.8
      vertex 0.339068 -5.38934 6.8
    endloop
  endfacet
  facet normal -0 0 1
    outer loop
      vertex 0.0470924 -0.74852 6.8
      vertex 0.339068 -5.38934 6.8
      vertex 0.140535 -0.736715 6.8
    endloop
  endfacet
  facet normal -0 0 1
    outer loop
      vertex -0.0470924 -0.74852 6.8
      vertex 0.339068 -5.38934 6.8
      vertex 0.0470924 -0.74852 6.8
    endloop
  endfacet
  facet normal 0 0 1
    outer loop
      vertex -0.339068 -5.38934 6.8
      vertex -0.0470924 -0.74852 6.8
      vertex -0.140535 -0.736715 6.8
    endloop
  endfacet
  facet normal 0 0 1
    outer loop
      vertex -1.01186 -5.30435 6.8
      vertex -0.140535 -0.736715 6.8
      vertex -0.231762 -0.713292 6.8
    endloop
  endfacet
  facet normal 0 0 1
    outer loop
      vertex -1.66869 -5.1357 6.8
      vertex -0.231762 -0.713292 6.8
      vertex -0.319334 -0.678619 6.8
    endloop
  endfacet
  facet normal 0 0 1
    outer loop
      vertex -0.0470924 -0.74852 6.8
      vertex -0.339068 -5.38934 6.8
      vertex 0.339068 -5.38934 6.8
    endloop
  endfacet
  facet normal 0 0 1
    outer loop
      vertex -1.66869 -5.1357 6.8
      vertex -0.319334 -0.678619 6.8
      vertex -0.40187 -0.633245 6.8
    endloop
  endfacet
  facet normal 0 0 1
    outer loop
      vertex -1.66869 -5.1357 6.8
      vertex -0.40187 -0.633245 6.8
      vertex -0.478067 -0.577885 6.8
    endloop
  endfacet
  facet normal 0 0 1
    outer loop
      vertex -1.66869 -5.1357 6.8
      vertex -0.478067 -0.577885 6.8
      vertex -0.546726 -0.51341 6.8
    endloop
  endfacet
  facet normal 0 0 1
    outer loop
      vertex -1.66869 -5.1357 6.8
      vertex -0.546726 -0.51341 6.8
      vertex -0.606762 -0.440839 6.8
    endloop
  endfacet
  facet normal 0 0 1
    outer loop
      vertex -1.66869 -5.1357 6.8
      vertex -0.606762 -0.440839 6.8
      vertex -0.657229 -0.361315 6.8
    endloop
  endfacet
  facet normal 0 0 1
    outer loop
      vertex -1.66869 -5.1357 6.8
      vertex -0.657229 -0.361315 6.8
      vertex -0.697331 -0.276093 6.8
    endloop
  endfacet
  facet normal 0 0 1
    outer loop
      vertex -1.66869 -5.1357 6.8
      vertex -0.697331 -0.276093 6.8
      vertex -0.726437 -0.186517 6.8
    endloop
  endfacet
  facet normal 0 0 1
    outer loop
      vertex -1.66869 -5.1357 6.8
      vertex -0.726437 -0.186517 6.8
      vertex -0.744085 -0.0939999 6.8
    endloop
  endfacet
  facet normal 0 0 1
    outer loop
      vertex -0.140535 -0.736715 6.8
      vertex -1.01186 -5.30435 6.8
      vertex -0.339068 -5.38934 6.8
    endloop
  endfacet
  facet normal 0 0 1
    outer loop
      vertex -5.35742 -0.676799 6.8
      vertex -0.744085 -0.0939999 6.8
      vertex -0.75 0 6.8
    endloop
  endfacet
  facet normal -0.125328 0.992115 0
    outer loop
      vertex 1.01186 -5.30435 6.8
      vertex 0.339068 -5.38934 9.5
      vertex 1.01186 -5.30435 9.5
    endloop
  endfacet
  facet normal -0.125328 0.992115 0
    outer loop
      vertex 0.339068 -5.38934 9.5
      vertex 1.01186 -5.30435 6.8
      vertex 0.339068 -5.38934 6.8
    endloop
  endfacet
  facet normal 0.951054 0.309025 0
    outer loop
      vertex -5.02079 -1.98787 9.5
      vertex -5.23035 -1.34293 6.8
      vertex -5.23035 -1.34293 9.5
    endloop
  endfacet
  facet normal 0.951054 0.309025 0
    outer loop
      vertex -5.23035 -1.34293 6.8
      vertex -5.02079 -1.98787 9.5
      vertex -5.02079 -1.98787 6.8
    endloop
  endfacet
  facet normal 0.982288 0.187379 0
    outer loop
      vertex -5.23035 -1.34293 9.5
      vertex -5.35742 -0.676799 6.8
      vertex -5.35742 -0.676799 9.5
    endloop
  endfacet
  facet normal 0.982288 0.187379 0
    outer loop
      vertex -5.35742 -0.676799 6.8
      vertex -5.23035 -1.34293 9.5
      vertex -5.23035 -1.34293 6.8
    endloop
  endfacet
  facet normal 0.998027 0.0627897 0
    outer loop
      vertex -5.35742 -0.676799 9.5
      vertex -5.4 0 6.8
      vertex -5.4 0 9.5
    endloop
  endfacet
  facet normal 0.998027 0.0627897 0
    outer loop
      vertex -5.4 0 6.8
      vertex -5.35742 -0.676799 9.5
      vertex -5.35742 -0.676799 6.8
    endloop
  endfacet
  facet normal -0.68455 0.728966 0
    outer loop
      vertex 3.93643 -3.69655 6.8
      vertex 3.44209 -4.16077 9.5
      vertex 3.93643 -3.69655 9.5
    endloop
  endfacet
  facet normal -0.68455 0.728966 0
    outer loop
      vertex 3.44209 -4.16077 9.5
      vertex 3.93643 -3.69655 6.8
      vertex 3.44209 -4.16077 6.8
    endloop
  endfacet
  facet normal -0.770512 0.637426 0
    outer loop
      vertex 3.93643 -3.69655 6.8
      vertex 4.36869 -3.17404 9.5
      vertex 4.36869 -3.17404 6.8
    endloop
  endfacet
  facet normal -0.770512 0.637426 0
    outer loop
      vertex 4.36869 -3.17404 9.5
      vertex 3.93643 -3.69655 6.8
      vertex 3.93643 -3.69655 9.5
    endloop
  endfacet
  facet normal -0.844324 0.535833 0
    outer loop
      vertex 4.36869 -3.17404 6.8
      vertex 4.73206 -2.60147 9.5
      vertex 4.73206 -2.60147 6.8
    endloop
  endfacet
  facet normal -0.844324 0.535833 0
    outer loop
      vertex 4.73206 -2.60147 9.5
      vertex 4.36869 -3.17404 6.8
      vertex 4.36869 -3.17404 9.5
    endloop
  endfacet
  facet normal -0.368111 0.929782 0
    outer loop
      vertex 2.29921 -4.88607 6.8
      vertex 1.66869 -5.1357 9.5
      vertex 2.29921 -4.88607 9.5
    endloop
  endfacet
  facet normal -0.368111 0.929782 0
    outer loop
      vertex 1.66869 -5.1357 9.5
      vertex 2.29921 -4.88607 6.8
      vertex 1.66869 -5.1357 6.8
    endloop
  endfacet
  facet normal -0.248696 0.968581 0
    outer loop
      vertex 1.66869 -5.1357 6.8
      vertex 1.01186 -5.30435 9.5
      vertex 1.66869 -5.1357 9.5
    endloop
  endfacet
  facet normal -0.248696 0.968581 0
    outer loop
      vertex 1.01186 -5.30435 9.5
      vertex 1.66869 -5.1357 6.8
      vertex 1.01186 -5.30435 6.8
    endloop
  endfacet
  facet normal -0.982288 0.187379 0
    outer loop
      vertex 5.23035 -1.34293 6.8
      vertex 5.35742 -0.676799 9.5
      vertex 5.35742 -0.676799 6.8
    endloop
  endfacet
  facet normal -0.982288 0.187379 0
    outer loop
      vertex 5.35742 -0.676799 9.5
      vertex 5.23035 -1.34293 6.8
      vertex 5.23035 -1.34293 9.5
    endloop
  endfacet
  facet normal 0.368111 0.929782 -0
    outer loop
      vertex -1.66869 -5.1357 6.8
      vertex -2.29921 -4.88607 9.5
      vertex -1.66869 -5.1357 9.5
    endloop
  endfacet
  facet normal 0.368111 0.929782 0
    outer loop
      vertex -2.29921 -4.88607 9.5
      vertex -1.66869 -5.1357 6.8
      vertex -2.29921 -4.88607 6.8
    endloop
  endfacet
  facet normal 0.248696 0.968581 -0
    outer loop
      vertex -1.01186 -5.30435 6.8
      vertex -1.66869 -5.1357 9.5
      vertex -1.01186 -5.30435 9.5
    endloop
  endfacet
  facet normal 0.248696 0.968581 0
    outer loop
      vertex -1.66869 -5.1357 9.5
      vertex -1.01186 -5.30435 6.8
      vertex -1.66869 -5.1357 6.8
    endloop
  endfacet
  facet normal 0.125328 0.992115 -0
    outer loop
      vertex -0.339068 -5.38934 6.8
      vertex -1.01186 -5.30435 9.5
      vertex -0.339068 -5.38934 9.5
    endloop
  endfacet
  facet normal 0.125328 0.992115 0
    outer loop
      vertex -1.01186 -5.30435 9.5
      vertex -0.339068 -5.38934 6.8
      vertex -1.01186 -5.30435 6.8
    endloop
  endfacet
  facet normal 0.904832 0.425769 0
    outer loop
      vertex -4.73206 -2.60147 9.5
      vertex -5.02079 -1.98787 6.8
      vertex -5.02079 -1.98787 9.5
    endloop
  endfacet
  facet normal 0.904832 0.425769 0
    outer loop
      vertex -5.02079 -1.98787 6.8
      vertex -4.73206 -2.60147 9.5
      vertex -4.73206 -2.60147 6.8
    endloop
  endfacet
  facet normal 0.770512 0.637426 0
    outer loop
      vertex -3.93643 -3.69655 9.5
      vertex -4.36869 -3.17404 6.8
      vertex -4.36869 -3.17404 9.5
    endloop
  endfacet
  facet normal 0.770512 0.637426 0
    outer loop
      vertex -4.36869 -3.17404 6.8
      vertex -3.93643 -3.69655 9.5
      vertex -3.93643 -3.69655 6.8
    endloop
  endfacet
  facet normal 0.844324 0.535833 0
    outer loop
      vertex -4.36869 -3.17404 9.5
      vertex -4.73206 -2.60147 6.8
      vertex -4.73206 -2.60147 9.5
    endloop
  endfacet
  facet normal 0.844324 0.535833 0
    outer loop
      vertex -4.73206 -2.60147 6.8
      vertex -4.36869 -3.17404 9.5
      vertex -4.36869 -3.17404 6.8
    endloop
  endfacet
  facet normal 0.68455 0.728966 -0
    outer loop
      vertex -3.44209 -4.16077 6.8
      vertex -3.93643 -3.69655 9.5
      vertex -3.44209 -4.16077 9.5
    endloop
  endfacet
  facet normal 0.68455 0.728966 0
    outer loop
      vertex -3.93643 -3.69655 9.5
      vertex -3.44209 -4.16077 6.8
      vertex -3.93643 -3.69655 6.8
    endloop
  endfacet
  facet normal -0.587782 0.809019 0
    outer loop
      vertex 3.44209 -4.16077 6.8
      vertex 2.89346 -4.55937 9.5
      vertex 3.44209 -4.16077 9.5
    endloop
  endfacet
  facet normal -0.587782 0.809019 0
    outer loop
      vertex 2.89346 -4.55937 9.5
      vertex 3.44209 -4.16077 6.8
      vertex 2.89346 -4.55937 6.8
    endloop
  endfacet
  facet normal -0.481763 0.876302 0
    outer loop
      vertex 2.89346 -4.55937 6.8
      vertex 2.29921 -4.88607 9.5
      vertex 2.89346 -4.55937 9.5
    endloop
  endfacet
  facet normal -0.481763 0.876302 0
    outer loop
      vertex 2.29921 -4.88607 9.5
      vertex 2.89346 -4.55937 6.8
      vertex 2.29921 -4.88607 6.8
    endloop
  endfacet
  facet normal -0.904832 0.425769 0
    outer loop
      vertex 4.73206 -2.60147 6.8
      vertex 5.02079 -1.98787 9.5
      vertex 5.02079 -1.98787 6.8
    endloop
  endfacet
  facet normal -0.904832 0.425769 0
    outer loop
      vertex 5.02079 -1.98787 9.5
      vertex 4.73206 -2.60147 6.8
      vertex 4.73206 -2.60147 9.5
    endloop
  endfacet
  facet normal 0.587782 0.809019 -0
    outer loop
      vertex -2.89346 -4.55937 6.8
      vertex -3.44209 -4.16077 9.5
      vertex -2.89346 -4.55937 9.5
    endloop
  endfacet
  facet normal 0.587782 0.809019 0
    outer loop
      vertex -3.44209 -4.16077 9.5
      vertex -2.89346 -4.55937 6.8
      vertex -3.44209 -4.16077 6.8
    endloop
  endfacet
  facet normal 0.481763 0.876302 -0
    outer loop
      vertex -2.29921 -4.88607 6.8
      vertex -2.89346 -4.55937 9.5
      vertex -2.29921 -4.88607 9.5
    endloop
  endfacet
  facet normal 0.481763 0.876302 0
    outer loop
      vertex -2.89346 -4.55937 9.5
      vertex -2.29921 -4.88607 6.8
      vertex -2.89346 -4.55937 6.8
    endloop
  endfacet
  facet normal 0 1 0
    outer loop
      vertex 10.6256 12.5 12.5
      vertex 10.25 12.5 9.5
      vertex 10.25 12.5 12.5
    endloop
  endfacet
  facet normal 0 1 0
    outer loop
      vertex 10.25 12.5 9.5
      vertex 10.6256 12.5 0
      vertex -10.25 12.5 9.5
    endloop
  endfacet
  facet normal 0 1 -0
    outer loop
      vertex 10.6256 12.5 0
      vertex 10.25 12.5 9.5
      vertex 10.6256 12.5 12.5
    endloop
  endfacet
  facet normal 0 1 -0
    outer loop
      vertex -10.25 12.5 9.5
      vertex -10.6256 12.5 12.5
      vertex -10.25 12.5 12.5
    endloop
  endfacet
  facet normal 0 1 0
    outer loop
      vertex -10.25 12.5 9.5
      vertex -10.6256 12.5 0
      vertex -10.6256 12.5 12.5
    endloop
  endfacet
  facet normal 0 1 0
    outer loop
      vertex -10.6256 12.5 0
      vertex -10.25 12.5 9.5
      vertex 10.6256 12.5 0
    endloop
  endfacet
  facet normal -0.125407 0.992105 0
    outer loop
      vertex -10.6256 12.5 0
      vertex -10.8748 12.4685 12.5
      vertex -10.6256 12.5 12.5
    endloop
  endfacet
  facet normal -0.125407 0.992105 0
    outer loop
      vertex -10.8748 12.4685 12.5
      vertex -10.6256 12.5 0
      vertex -10.8748 12.4685 0
    endloop
  endfacet
  facet normal 0.125407 -0.992105 0
    outer loop
      vertex 10.6256 -12.5 0
      vertex 10.8748 -12.4685 12.5
      vertex 10.6256 -12.5 12.5
    endloop
  endfacet
  facet normal 0.125407 -0.992105 0
    outer loop
      vertex 10.8748 -12.4685 12.5
      vertex 10.6256 -12.5 0
      vertex 10.8748 -12.4685 0
    endloop
  endfacet
  facet normal 1 0 0
    outer loop
      vertex 12.5 2 12.5
      vertex 12.5 -10.504 12.5
      vertex 12.5 2 2
    endloop
  endfacet
  facet normal 1 0 0
    outer loop
      vertex 12.5 7.5 2
      vertex 12.5 10.504 12.5
      vertex 12.5 7.5 12.5
    endloop
  endfacet
  facet normal 1 0 0
    outer loop
      vertex 12.5 10.504 12.5
      vertex 12.5 7.5 2
      vertex 12.5 10.504 0
    endloop
  endfacet
  facet normal 1 -0 0
    outer loop
      vertex 12.5 2 2
      vertex 12.5 10.504 0
      vertex 12.5 7.5 2
    endloop
  endfacet
  facet normal 1 0 0
    outer loop
      vertex 12.5 2 2
      vertex 12.5 -10.504 0
      vertex 12.5 10.504 0
    endloop
  endfacet
  facet normal 1 0 0
    outer loop
      vertex 12.5 -10.504 0
      vertex 12.5 2 2
      vertex 12.5 -10.504 12.5
    endloop
  endfacet
  facet normal 0.770468 0.637478 0
    outer loop
      vertex 12.118 11.6795 12.5
      vertex 11.9579 11.873 0
      vertex 11.9579 11.873 12.5
    endloop
  endfacet
  facet normal 0.770468 0.637478 0
    outer loop
      vertex 11.9579 11.873 0
      vertex 12.118 11.6795 12.5
      vertex 12.118 11.6795 0
    endloop
  endfacet
  facet normal 0.125407 0.992105 -0
    outer loop
      vertex 10.8748 12.4685 0
      vertex 10.6256 12.5 12.5
      vertex 10.8748 12.4685 12.5
    endloop
  endfacet
  facet normal 0.125407 0.992105 0
    outer loop
      vertex 10.6256 12.5 12.5
      vertex 10.8748 12.4685 0
      vertex 10.6256 12.5 0
    endloop
  endfacet
  facet normal 0.481751 -0.876308 0
    outer loop
      vertex 11.3515 -12.3136 0
      vertex 11.5716 -12.1926 12.5
      vertex 11.3515 -12.3136 12.5
    endloop
  endfacet
  facet normal 0.481751 -0.876308 0
    outer loop
      vertex 11.5716 -12.1926 12.5
      vertex 11.3515 -12.3136 0
      vertex 11.5716 -12.1926 0
    endloop
  endfacet
  facet normal 0.368299 0.929707 -0
    outer loop
      vertex 11.3515 12.3136 0
      vertex 11.118 12.4061 12.5
      vertex 11.3515 12.3136 12.5
    endloop
  endfacet
  facet normal 0.368299 0.929707 0
    outer loop
      vertex 11.118 12.4061 12.5
      vertex 11.3515 12.3136 0
      vertex 11.118 12.4061 0
    endloop
  endfacet
  facet normal 0.684669 0.728854 -0
    outer loop
      vertex 11.9579 11.873 0
      vertex 11.7748 12.045 12.5
      vertex 11.9579 11.873 12.5
    endloop
  endfacet
  facet normal 0.684669 0.728854 0
    outer loop
      vertex 11.7748 12.045 12.5
      vertex 11.9579 11.873 0
      vertex 11.7748 12.045 0
    endloop
  endfacet
  facet normal 0.587698 0.80908 -0
    outer loop
      vertex 11.7748 12.045 0
      vertex 11.5716 12.1926 12.5
      vertex 11.7748 12.045 12.5
    endloop
  endfacet
  facet normal 0.587698 0.80908 0
    outer loop
      vertex 11.5716 12.1926 12.5
      vertex 11.7748 12.045 0
      vertex 11.5716 12.1926 0
    endloop
  endfacet
  facet normal 0 0 1
    outer loop
      vertex -12.5 10.504 12.5
      vertex -10.25 12.5 12.5
      vertex -10.6256 12.5 12.5
    endloop
  endfacet
  facet normal 0 0 1
    outer loop
      vertex -12.5 10.504 12.5
      vertex -10.6256 12.5 12.5
      vertex -10.8748 12.4685 12.5
    endloop
  endfacet
  facet normal 0 0 1
    outer loop
      vertex -12.5 10.504 12.5
      vertex -10.8748 12.4685 12.5
      vertex -11.118 12.4061 12.5
    endloop
  endfacet
  facet normal 0 0 1
    outer loop
      vertex -12.5 10.504 12.5
      vertex -11.118 12.4061 12.5
      vertex -11.3515 12.3136 12.5
    endloop
  endfacet
  facet normal 0 0 1
    outer loop
      vertex -12.5 10.504 12.5
      vertex -11.3515 12.3136 12.5
      vertex -11.5716 12.1926 12.5
    endloop
  endfacet
  facet normal 0 0 1
    outer loop
      vertex -12.5 10.504 12.5
      vertex -11.5716 12.1926 12.5
      vertex -11.7748 12.045 12.5
    endloop
  endfacet
  facet normal 0 0 1
    outer loop
      vertex -12.5 10.504 12.5
      vertex -11.7748 12.045 12.5
      vertex -11.9579 11.873 12.5
    endloop
  endfacet
  facet normal 0 0 1
    outer loop
      vertex -12.5 10.504 12.5
      vertex -11.9579 11.873 12.5
      vertex -12.118 11.6795 12.5
    endloop
  endfacet
  facet normal 0 0 1
    outer loop
      vertex -12.5 10.504 12.5
      vertex -12.118 11.6795 12.5
      vertex -12.2526 11.4675 12.5
    endloop
  endfacet
  facet normal 0 0 1
    outer loop
      vertex -12.5 10.504 12.5
      vertex -12.2526 11.4675 12.5
      vertex -12.3595 11.2402 12.5
    endloop
  endfacet
  facet normal 0 0 1
    outer loop
      vertex -12.5 10.504 12.5
      vertex -12.3595 11.2402 12.5
      vertex -12.4372 11.0013 12.5
    endloop
  endfacet
  facet normal 0 0 1
    outer loop
      vertex -12.5 10.504 12.5
      vertex -12.4372 11.0013 12.5
      vertex -12.4842 10.7546 12.5
    endloop
  endfacet
  facet normal 0 0 1
    outer loop
      vertex -10.25 12.5 12.5
      vertex -12.5 10.504 12.5
      vertex -10.25 7.5 12.5
    endloop
  endfacet
  facet normal 0 0 1
    outer loop
      vertex -10.25 7.5 12.5
      vertex -12.5 10.504 12.5
      vertex -12.5 7.5 12.5
    endloop
  endfacet
  facet normal -0 0 1
    outer loop
      vertex 10.25 2 12.5
      vertex 12.5 -10.504 12.5
      vertex 12.5 2 12.5
    endloop
  endfacet
  facet normal 0 0 1
    outer loop
      vertex 10.25 -12.5 12.5
      vertex 12.5 -10.504 12.5
      vertex 10.25 2 12.5
    endloop
  endfacet
  facet normal 0 -0 1
    outer loop
      vertex 10.6256 -12.5 12.5
      vertex 12.5 -10.504 12.5
      vertex 10.25 -12.5 12.5
    endloop
  endfacet
  facet normal 0 0 1
    outer loop
      vertex 12.5 -10.504 12.5
      vertex 10.6256 -12.5 12.5
      vertex 12.4842 -10.7546 12.5
    endloop
  endfacet
  facet normal 0 0 1
    outer loop
      vertex 12.4842 -10.7546 12.5
      vertex 10.6256 -12.5 12.5
      vertex 12.4372 -11.0013 12.5
    endloop
  endfacet
  facet normal 0 0 1
    outer loop
      vertex 12.4372 -11.0013 12.5
      vertex 10.6256 -12.5 12.5
      vertex 12.3595 -11.2402 12.5
    endloop
  endfacet
  facet normal 0 0 1
    outer loop
      vertex 12.3595 -11.2402 12.5
      vertex 10.6256 -12.5 12.5
      vertex 12.2526 -11.4675 12.5
    endloop
  endfacet
  facet normal 0 0 1
    outer loop
      vertex 12.2526 -11.4675 12.5
      vertex 10.6256 -12.5 12.5
      vertex 12.118 -11.6795 12.5
    endloop
  endfacet
  facet normal 0 0 1
    outer loop
      vertex 12.118 -11.6795 12.5
      vertex 10.6256 -12.5 12.5
      vertex 11.9579 -11.873 12.5
    endloop
  endfacet
  facet normal 0 0 1
    outer loop
      vertex 11.9579 -11.873 12.5
      vertex 10.6256 -12.5 12.5
      vertex 11.7748 -12.045 12.5
    endloop
  endfacet
  facet normal 0 0 1
    outer loop
      vertex 11.7748 -12.045 12.5
      vertex 10.6256 -12.5 12.5
      vertex 11.5716 -12.1926 12.5
    endloop
  endfacet
  facet normal 0 0 1
    outer loop
      vertex 11.5716 -12.1926 12.5
      vertex 10.6256 -12.5 12.5
      vertex 11.3515 -12.3136 12.5
    endloop
  endfacet
  facet normal 0 0 1
    outer loop
      vertex 11.3515 -12.3136 12.5
      vertex 10.6256 -12.5 12.5
      vertex 11.118 -12.4061 12.5
    endloop
  endfacet
  facet normal 0 0 1
    outer loop
      vertex 11.118 -12.4061 12.5
      vertex 10.6256 -12.5 12.5
      vertex 10.8748 -12.4685 12.5
    endloop
  endfacet
  facet normal 0 0 1
    outer loop
      vertex 10.6256 12.5 12.5
      vertex 12.5 10.504 12.5
      vertex 12.4842 10.7546 12.5
    endloop
  endfacet
  facet normal 0 0 1
    outer loop
      vertex 10.6256 12.5 12.5
      vertex 12.4842 10.7546 12.5
      vertex 12.4372 11.0013 12.5
    endloop
  endfacet
  facet normal 0 0 1
    outer loop
      vertex 10.6256 12.5 12.5
      vertex 12.4372 11.0013 12.5
      vertex 12.3595 11.2402 12.5
    endloop
  endfacet
  facet normal 0 0 1
    outer loop
      vertex 10.6256 12.5 12.5
      vertex 12.3595 11.2402 12.5
      vertex 12.2526 11.4675 12.5
    endloop
  endfacet
  facet normal 0 0 1
    outer loop
      vertex 10.6256 12.5 12.5
      vertex 12.2526 11.4675 12.5
      vertex 12.118 11.6795 12.5
    endloop
  endfacet
  facet normal 0 0 1
    outer loop
      vertex 10.6256 12.5 12.5
      vertex 12.118 11.6795 12.5
      vertex 11.9579 11.873 12.5
    endloop
  endfacet
  facet normal 0 0 1
    outer loop
      vertex 10.6256 12.5 12.5
      vertex 11.9579 11.873 12.5
      vertex 11.7748 12.045 12.5
    endloop
  endfacet
  facet normal 0 0 1
    outer loop
      vertex 10.6256 12.5 12.5
      vertex 11.7748 12.045 12.5
      vertex 11.5716 12.1926 12.5
    endloop
  endfacet
  facet normal 0 0 1
    outer loop
      vertex 10.6256 12.5 12.5
      vertex 11.5716 12.1926 12.5
      vertex 11.3515 12.3136 12.5
    endloop
  endfacet
  facet normal 0 0 1
    outer loop
      vertex 10.6256 12.5 12.5
      vertex 11.3515 12.3136 12.5
      vertex 11.118 12.4061 12.5
    endloop
  endfacet
  facet normal 0 0 1
    outer loop
      vertex 10.6256 12.5 12.5
      vertex 11.118 12.4061 12.5
      vertex 10.8748 12.4685 12.5
    endloop
  endfacet
  facet normal 0 0 1
    outer loop
      vertex 12.5 10.504 12.5
      vertex 10.6256 12.5 12.5
      vertex 10.25 12.5 12.5
    endloop
  endfacet
  facet normal 0 0 1
    outer loop
      vertex 12.5 10.504 12.5
      vertex 10.25 12.5 12.5
      vertex 10.25 7.5 12.5
    endloop
  endfacet
  facet normal 0 0 1
    outer loop
      vertex 12.5 10.504 12.5
      vertex 10.25 7.5 12.5
      vertex 12.5 7.5 12.5
    endloop
  endfacet
  facet normal -0 0 1
    outer loop
      vertex -12.5 -10.504 12.5
      vertex -10.25 -12.5 12.5
      vertex -10.25 2 12.5
    endloop
  endfacet
  facet normal 0 0 1
    outer loop
      vertex -10.25 -12.5 12.5
      vertex -12.5 -10.504 12.5
      vertex -10.6256 -12.5 12.5
    endloop
  endfacet
  facet normal 0 0 1
    outer loop
      vertex -10.6256 -12.5 12.5
      vertex -12.5 -10.504 12.5
      vertex -10.8748 -12.4685 12.5
    endloop
  endfacet
  facet normal 0 0 1
    outer loop
      vertex -10.8748 -12.4685 12.5
      vertex -12.5 -10.504 12.5
      vertex -11.118 -12.4061 12.5
    endloop
  endfacet
  facet normal 0 0 1
    outer loop
      vertex -11.118 -12.4061 12.5
      vertex -12.5 -10.504 12.5
      vertex -11.3515 -12.3136 12.5
    endloop
  endfacet
  facet normal 0 0 1
    outer loop
      vertex -11.3515 -12.3136 12.5
      vertex -12.5 -10.504 12.5
      vertex -11.5716 -12.1926 12.5
    endloop
  endfacet
  facet normal 0 0 1
    outer loop
      vertex -11.5716 -12.1926 12.5
      vertex -12.5 -10.504 12.5
      vertex -11.7748 -12.045 12.5
    endloop
  endfacet
  facet normal 0 0 1
    outer loop
      vertex -11.7748 -12.045 12.5
      vertex -12.5 -10.504 12.5
      vertex -11.9579 -11.873 12.5
    endloop
  endfacet
  facet normal 0 0 1
    outer loop
      vertex -11.9579 -11.873 12.5
      vertex -12.5 -10.504 12.5
      vertex -12.118 -11.6795 12.5
    endloop
  endfacet
  facet normal 0 0 1
    outer loop
      vertex -12.118 -11.6795 12.5
      vertex -12.5 -10.504 12.5
      vertex -12.2526 -11.4675 12.5
    endloop
  endfacet
  facet normal 0 0 1
    outer loop
      vertex -12.2526 -11.4675 12.5
      vertex -12.5 -10.504 12.5
      vertex -12.3595 -11.2402 12.5
    endloop
  endfacet
  facet normal 0 0 1
    outer loop
      vertex -12.3595 -11.2402 12.5
      vertex -12.5 -10.504 12.5
      vertex -12.4372 -11.0013 12.5
    endloop
  endfacet
  facet normal 0 0 1
    outer loop
      vertex -12.5 -10.504 12.5
      vertex -10.25 2 12.5
      vertex -12.5 2 12.5
    endloop
  endfacet
  facet normal 0 0 1
    outer loop
      vertex -12.4372 -11.0013 12.5
      vertex -12.5 -10.504 12.5
      vertex -12.4842 -10.7546 12.5
    endloop
  endfacet
  facet normal -0.770468 -0.637478 0
    outer loop
      vertex -11.9579 -11.873 0
      vertex -12.118 -11.6795 12.5
      vertex -12.118 -11.6795 0
    endloop
  endfacet
  facet normal -0.770468 -0.637478 0
    outer loop
      vertex -12.118 -11.6795 12.5
      vertex -11.9579 -11.873 0
      vertex -11.9579 -11.873 12.5
    endloop
  endfacet
  facet normal -0.684669 -0.728854 0
    outer loop
      vertex -11.9579 -11.873 0
      vertex -11.7748 -12.045 12.5
      vertex -11.9579 -11.873 12.5
    endloop
  endfacet
  facet normal -0.684669 -0.728854 -0
    outer loop
      vertex -11.7748 -12.045 12.5
      vertex -11.9579 -11.873 0
      vertex -11.7748 -12.045 0
    endloop
  endfacet
  facet normal -0.125407 -0.992105 0
    outer loop
      vertex -10.8748 -12.4685 0
      vertex -10.6256 -12.5 12.5
      vertex -10.8748 -12.4685 12.5
    endloop
  endfacet
  facet normal -0.125407 -0.992105 -0
    outer loop
      vertex -10.6256 -12.5 12.5
      vertex -10.8748 -12.4685 0
      vertex -10.6256 -12.5 0
    endloop
  endfacet
  facet normal 0 -1 0
    outer loop
      vertex -10.6256 -12.5 12.5
      vertex -10.25 -12.5 9.5
      vertex -10.25 -12.5 12.5
    endloop
  endfacet
  facet normal 0 -1 -0
    outer loop
      vertex -10.25 -12.5 9.5
      vertex -10.6256 -12.5 0
      vertex 10.25 -12.5 9.5
    endloop
  endfacet
  facet normal 0 -1 0
    outer loop
      vertex -10.6256 -12.5 0
      vertex -10.25 -12.5 9.5
      vertex -10.6256 -12.5 12.5
    endloop
  endfacet
  facet normal 0 -1 0
    outer loop
      vertex 10.25 -12.5 9.5
      vertex 10.6256 -12.5 12.5
      vertex 10.25 -12.5 12.5
    endloop
  endfacet
  facet normal 0 -1 0
    outer loop
      vertex 10.25 -12.5 9.5
      vertex 10.6256 -12.5 0
      vertex 10.6256 -12.5 12.5
    endloop
  endfacet
  facet normal 0 -1 0
    outer loop
      vertex 10.6256 -12.5 0
      vertex 10.25 -12.5 9.5
      vertex -10.6256 -12.5 0
    endloop
  endfacet
  facet normal 0.950967 -0.309293 0
    outer loop
      vertex 12.3595 -11.2402 12.5
      vertex 12.4372 -11.0013 0
      vertex 12.4372 -11.0013 12.5
    endloop
  endfacet
  facet normal 0.950967 -0.309293 0
    outer loop
      vertex 12.4372 -11.0013 0
      vertex 12.3595 -11.2402 12.5
      vertex 12.3595 -11.2402 0
    endloop
  endfacet
  facet normal 0.248529 0.968625 -0
    outer loop
      vertex 11.118 12.4061 0
      vertex 10.8748 12.4685 12.5
      vertex 11.118 12.4061 12.5
    endloop
  endfacet
  facet normal 0.248529 0.968625 0
    outer loop
      vertex 10.8748 12.4685 12.5
      vertex 11.118 12.4061 0
      vertex 10.8748 12.4685 0
    endloop
  endfacet
  facet normal 0.481751 0.876308 -0
    outer loop
      vertex 11.5716 12.1926 0
      vertex 11.3515 12.3136 12.5
      vertex 11.5716 12.1926 12.5
    endloop
  endfacet
  facet normal 0.481751 0.876308 0
    outer loop
      vertex 11.3515 12.3136 12.5
      vertex 11.5716 12.1926 0
      vertex 11.3515 12.3136 0
    endloop
  endfacet
  facet normal -1 0 0
    outer loop
      vertex -12.5 10.504 0
      vertex -12.5 7.5 2
      vertex -12.5 10.504 12.5
    endloop
  endfacet
  facet normal -1 0 0
    outer loop
      vertex -12.5 10.504 0
      vertex -12.5 2 2
      vertex -12.5 7.5 2
    endloop
  endfacet
  facet normal -1 0 0
    outer loop
      vertex -12.5 -10.504 0
      vertex -12.5 2 2
      vertex -12.5 10.504 0
    endloop
  endfacet
  facet normal -1 0 0
    outer loop
      vertex -12.5 -10.504 12.5
      vertex -12.5 2 2
      vertex -12.5 -10.504 0
    endloop
  endfacet
  facet normal -1 0 0
    outer loop
      vertex -12.5 2 2
      vertex -12.5 -10.504 12.5
      vertex -12.5 2 12.5
    endloop
  endfacet
  facet normal -1 -0 0
    outer loop
      vertex -12.5 10.504 12.5
      vertex -12.5 7.5 2
      vertex -12.5 7.5 12.5
    endloop
  endfacet
  facet normal -0.770468 0.637478 0
    outer loop
      vertex -12.118 11.6795 0
      vertex -11.9579 11.873 12.5
      vertex -11.9579 11.873 0
    endloop
  endfacet
  facet normal -0.770468 0.637478 0
    outer loop
      vertex -11.9579 11.873 12.5
      vertex -12.118 11.6795 0
      vertex -12.118 11.6795 12.5
    endloop
  endfacet
  facet normal -0.248529 -0.968625 0
    outer loop
      vertex -11.118 -12.4061 0
      vertex -10.8748 -12.4685 12.5
      vertex -11.118 -12.4061 12.5
    endloop
  endfacet
  facet normal -0.248529 -0.968625 -0
    outer loop
      vertex -10.8748 -12.4685 12.5
      vertex -11.118 -12.4061 0
      vertex -10.8748 -12.4685 0
    endloop
  endfacet
  facet normal -0.587698 -0.80908 0
    outer loop
      vertex -11.7748 -12.045 0
      vertex -11.5716 -12.1926 12.5
      vertex -11.7748 -12.045 12.5
    endloop
  endfacet
  facet normal -0.587698 -0.80908 -0
    outer loop
      vertex -11.5716 -12.1926 12.5
      vertex -11.7748 -12.045 0
      vertex -11.5716 -12.1926 0
    endloop
  endfacet
  facet normal 0.248529 -0.968625 0
    outer loop
      vertex 10.8748 -12.4685 0
      vertex 11.118 -12.4061 12.5
      vertex 10.8748 -12.4685 12.5
    endloop
  endfacet
  facet normal 0.248529 -0.968625 0
    outer loop
      vertex 11.118 -12.4061 12.5
      vertex 10.8748 -12.4685 0
      vertex 11.118 -12.4061 0
    endloop
  endfacet
  facet normal 0.844219 -0.535999 0
    outer loop
      vertex 12.118 -11.6795 12.5
      vertex 12.2526 -11.4675 0
      vertex 12.2526 -11.4675 12.5
    endloop
  endfacet
  facet normal 0.844219 -0.535999 0
    outer loop
      vertex 12.2526 -11.4675 0
      vertex 12.118 -11.6795 12.5
      vertex 12.118 -11.6795 0
    endloop
  endfacet
  facet normal 0.982332 -0.187149 0
    outer loop
      vertex 12.4372 -11.0013 12.5
      vertex 12.4842 -10.7546 0
      vertex 12.4842 -10.7546 12.5
    endloop
  endfacet
  facet normal 0.982332 -0.187149 0
    outer loop
      vertex 12.4842 -10.7546 0
      vertex 12.4372 -11.0013 12.5
      vertex 12.4372 -11.0013 0
    endloop
  endfacet
  facet normal -0.904918 -0.425586 0
    outer loop
      vertex -12.2526 -11.4675 0
      vertex -12.3595 -11.2402 12.5
      vertex -12.3595 -11.2402 0
    endloop
  endfacet
  facet normal -0.904918 -0.425586 0
    outer loop
      vertex -12.3595 -11.2402 12.5
      vertex -12.2526 -11.4675 0
      vertex -12.2526 -11.4675 12.5
    endloop
  endfacet
  facet normal 0 0 -1
    outer loop
      vertex 10.6256 -12.5 0
      vertex 12.5 -10.504 0
      vertex 12.4842 -10.7546 0
    endloop
  endfacet
  facet normal 0 0 -1
    outer loop
      vertex -12.5 -10.504 0
      vertex 12.5 -10.504 0
      vertex 10.6256 -12.5 0
    endloop
  endfacet
  facet normal 0 0 -1
    outer loop
      vertex 10.6256 -12.5 0
      vertex 12.4842 -10.7546 0
      vertex 12.4372 -11.0013 0
    endloop
  endfacet
  facet normal 0 0 -1
    outer loop
      vertex 12.5 -10.504 0
      vertex -12.5 -10.504 0
      vertex 12.5 10.504 0
    endloop
  endfacet
  facet normal 0 0 -1
    outer loop
      vertex 10.6256 -12.5 0
      vertex 12.4372 -11.0013 0
      vertex 12.3595 -11.2402 0
    endloop
  endfacet
  facet normal 0 0 -1
    outer loop
      vertex 12.5 10.504 0
      vertex 10.6256 12.5 0
      vertex 12.4842 10.7546 0
    endloop
  endfacet
  facet normal 0 0 -1
    outer loop
      vertex 10.6256 -12.5 0
      vertex 12.3595 -11.2402 0
      vertex 12.2526 -11.4675 0
    endloop
  endfacet
  facet normal 0 0 -1
    outer loop
      vertex 12.4842 10.7546 0
      vertex 10.6256 12.5 0
      vertex 12.4372 11.0013 0
    endloop
  endfacet
  facet normal 0 0 -1
    outer loop
      vertex 10.6256 -12.5 0
      vertex 12.2526 -11.4675 0
      vertex 12.118 -11.6795 0
    endloop
  endfacet
  facet normal 0 0 -1
    outer loop
      vertex 12.4372 11.0013 0
      vertex 10.6256 12.5 0
      vertex 12.3595 11.2402 0
    endloop
  endfacet
  facet normal 0 0 -1
    outer loop
      vertex 10.6256 -12.5 0
      vertex 12.118 -11.6795 0
      vertex 11.9579 -11.873 0
    endloop
  endfacet
  facet normal 0 0 -1
    outer loop
      vertex 12.3595 11.2402 0
      vertex 10.6256 12.5 0
      vertex 12.2526 11.4675 0
    endloop
  endfacet
  facet normal 0 0 -1
    outer loop
      vertex 10.6256 -12.5 0
      vertex 11.9579 -11.873 0
      vertex 11.7748 -12.045 0
    endloop
  endfacet
  facet normal 0 0 -1
    outer loop
      vertex 12.2526 11.4675 0
      vertex 10.6256 12.5 0
      vertex 12.118 11.6795 0
    endloop
  endfacet
  facet normal 0 0 -1
    outer loop
      vertex 10.6256 -12.5 0
      vertex 11.7748 -12.045 0
      vertex 11.5716 -12.1926 0
    endloop
  endfacet
  facet normal 0 0 -1
    outer loop
      vertex 12.118 11.6795 0
      vertex 10.6256 12.5 0
      vertex 11.9579 11.873 0
    endloop
  endfacet
  facet normal 0 0 -1
    outer loop
      vertex 10.6256 -12.5 0
      vertex 11.5716 -12.1926 0
      vertex 11.3515 -12.3136 0
    endloop
  endfacet
  facet normal 0 0 -1
    outer loop
      vertex 11.9579 11.873 0
      vertex 10.6256 12.5 0
      vertex 11.7748 12.045 0
    endloop
  endfacet
  facet normal 0 0 -1
    outer loop
      vertex 10.6256 -12.5 0
      vertex 11.3515 -12.3136 0
      vertex 11.118 -12.4061 0
    endloop
  endfacet
  facet normal 0 0 -1
    outer loop
      vertex 11.7748 12.045 0
      vertex 10.6256 12.5 0
      vertex 11.5716 12.1926 0
    endloop
  endfacet
  facet normal 0 0 -1
    outer loop
      vertex 10.6256 -12.5 0
      vertex 11.118 -12.4061 0
      vertex 10.8748 -12.4685 0
    endloop
  endfacet
  facet normal 0 0 -1
    outer loop
      vertex 11.5716 12.1926 0
      vertex 10.6256 12.5 0
      vertex 11.3515 12.3136 0
    endloop
  endfacet
  facet normal 0 0 -1
    outer loop
      vertex 11.3515 12.3136 0
      vertex 10.6256 12.5 0
      vertex 11.118 12.4061 0
    endloop
  endfacet
  facet normal 0 0 -1
    outer loop
      vertex 11.118 12.4061 0
      vertex 10.6256 12.5 0
      vertex 10.8748 12.4685 0
    endloop
  endfacet
  facet normal 0 0 -1
    outer loop
      vertex -12.5 -10.504 0
      vertex 10.6256 -12.5 0
      vertex -10.6256 -12.5 0
    endloop
  endfacet
  facet normal 0 0 -1
    outer loop
      vertex -12.5 10.504 0
      vertex 12.5 10.504 0
      vertex -12.5 -10.504 0
    endloop
  endfacet
  facet normal 0 0 -1
    outer loop
      vertex -12.5 -10.504 0
      vertex -10.6256 -12.5 0
      vertex -10.8748 -12.4685 0
    endloop
  endfacet
  facet normal 0 0 -1
    outer loop
      vertex 12.5 10.504 0
      vertex -12.5 10.504 0
      vertex 10.6256 12.5 0
    endloop
  endfacet
  facet normal 0 0 -1
    outer loop
      vertex -12.5 -10.504 0
      vertex -10.8748 -12.4685 0
      vertex -11.118 -12.4061 0
    endloop
  endfacet
  facet normal -0 0 -1
    outer loop
      vertex 10.6256 12.5 0
      vertex -12.5 10.504 0
      vertex -10.6256 12.5 0
    endloop
  endfacet
  facet normal 0 0 -1
    outer loop
      vertex -12.5 -10.504 0
      vertex -11.118 -12.4061 0
      vertex -11.3515 -12.3136 0
    endloop
  endfacet
  facet normal 0 0 -1
    outer loop
      vertex -10.6256 12.5 0
      vertex -12.5 10.504 0
      vertex -10.8748 12.4685 0
    endloop
  endfacet
  facet normal 0 0 -1
    outer loop
      vertex -12.5 -10.504 0
      vertex -11.3515 -12.3136 0
      vertex -11.5716 -12.1926 0
    endloop
  endfacet
  facet normal 0 0 -1
    outer loop
      vertex -10.8748 12.4685 0
      vertex -12.5 10.504 0
      vertex -11.118 12.4061 0
    endloop
  endfacet
  facet normal 0 0 -1
    outer loop
      vertex -12.5 -10.504 0
      vertex -11.5716 -12.1926 0
      vertex -11.7748 -12.045 0
    endloop
  endfacet
  facet normal 0 0 -1
    outer loop
      vertex -11.118 12.4061 0
      vertex -12.5 10.504 0
      vertex -11.3515 12.3136 0
    endloop
  endfacet
  facet normal 0 0 -1
    outer loop
      vertex -12.5 -10.504 0
      vertex -11.7748 -12.045 0
      vertex -11.9579 -11.873 0
    endloop
  endfacet
  facet normal 0 0 -1
    outer loop
      vertex -11.3515 12.3136 0
      vertex -12.5 10.504 0
      vertex -11.5716 12.1926 0
    endloop
  endfacet
  facet normal 0 0 -1
    outer loop
      vertex -12.5 -10.504 0
      vertex -11.9579 -11.873 0
      vertex -12.118 -11.6795 0
    endloop
  endfacet
  facet normal 0 0 -1
    outer loop
      vertex -11.5716 12.1926 0
      vertex -12.5 10.504 0
      vertex -11.7748 12.045 0
    endloop
  endfacet
  facet normal 0 0 -1
    outer loop
      vertex -12.5 -10.504 0
      vertex -12.118 -11.6795 0
      vertex -12.2526 -11.4675 0
    endloop
  endfacet
  facet normal 0 0 -1
    outer loop
      vertex -11.7748 12.045 0
      vertex -12.5 10.504 0
      vertex -11.9579 11.873 0
    endloop
  endfacet
  facet normal 0 0 -1
    outer loop
      vertex -12.5 -10.504 0
      vertex -12.2526 -11.4675 0
      vertex -12.3595 -11.2402 0
    endloop
  endfacet
  facet normal 0 0 -1
    outer loop
      vertex -11.9579 11.873 0
      vertex -12.5 10.504 0
      vertex -12.118 11.6795 0
    endloop
  endfacet
  facet normal 0 0 -1
    outer loop
      vertex -12.5 -10.504 0
      vertex -12.3595 -11.2402 0
      vertex -12.4372 -11.0013 0
    endloop
  endfacet
  facet normal 0 0 -1
    outer loop
      vertex -12.118 11.6795 0
      vertex -12.5 10.504 0
      vertex -12.2526 11.4675 0
    endloop
  endfacet
  facet normal 0 0 -1
    outer loop
      vertex -12.5 -10.504 0
      vertex -12.4372 -11.0013 0
      vertex -12.4842 -10.7546 0
    endloop
  endfacet
  facet normal 0 0 -1
    outer loop
      vertex -12.2526 11.4675 0
      vertex -12.5 10.504 0
      vertex -12.3595 11.2402 0
    endloop
  endfacet
  facet normal 0 0 -1
    outer loop
      vertex -12.3595 11.2402 0
      vertex -12.5 10.504 0
      vertex -12.4372 11.0013 0
    endloop
  endfacet
  facet normal 0 0 -1
    outer loop
      vertex -12.4372 11.0013 0
      vertex -12.5 10.504 0
      vertex -12.4842 10.7546 0
    endloop
  endfacet
  facet normal -0.481751 0.876308 0
    outer loop
      vertex -11.3515 12.3136 0
      vertex -11.5716 12.1926 12.5
      vertex -11.3515 12.3136 12.5
    endloop
  endfacet
  facet normal -0.481751 0.876308 0
    outer loop
      vertex -11.5716 12.1926 12.5
      vertex -11.3515 12.3136 0
      vertex -11.5716 12.1926 0
    endloop
  endfacet
  facet normal -0.368299 -0.929707 0
    outer loop
      vertex -11.3515 -12.3136 0
      vertex -11.118 -12.4061 12.5
      vertex -11.3515 -12.3136 12.5
    endloop
  endfacet
  facet normal -0.368299 -0.929707 -0
    outer loop
      vertex -11.118 -12.4061 12.5
      vertex -11.3515 -12.3136 0
      vertex -11.118 -12.4061 0
    endloop
  endfacet
  facet normal -0.481751 -0.876308 0
    outer loop
      vertex -11.5716 -12.1926 0
      vertex -11.3515 -12.3136 12.5
      vertex -11.5716 -12.1926 12.5
    endloop
  endfacet
  facet normal -0.481751 -0.876308 -0
    outer loop
      vertex -11.3515 -12.3136 12.5
      vertex -11.5716 -12.1926 0
      vertex -11.3515 -12.3136 0
    endloop
  endfacet
  facet normal 0.587698 -0.80908 0
    outer loop
      vertex 11.5716 -12.1926 0
      vertex 11.7748 -12.045 12.5
      vertex 11.5716 -12.1926 12.5
    endloop
  endfacet
  facet normal 0.587698 -0.80908 0
    outer loop
      vertex 11.7748 -12.045 12.5
      vertex 11.5716 -12.1926 0
      vertex 11.7748 -12.045 0
    endloop
  endfacet
  facet normal 0.998018 -0.0629237 0
    outer loop
      vertex 12.4842 -10.7546 12.5
      vertex 12.5 -10.504 0
      vertex 12.5 -10.504 12.5
    endloop
  endfacet
  facet normal 0.998018 -0.0629237 0
    outer loop
      vertex 12.5 -10.504 0
      vertex 12.4842 -10.7546 12.5
      vertex 12.4842 -10.7546 0
    endloop
  endfacet
  facet normal 0.844219 0.535999 0
    outer loop
      vertex 12.2526 11.4675 12.5
      vertex 12.118 11.6795 0
      vertex 12.118 11.6795 12.5
    endloop
  endfacet
  facet normal 0.844219 0.535999 0
    outer loop
      vertex 12.118 11.6795 0
      vertex 12.2526 11.4675 12.5
      vertex 12.2526 11.4675 0
    endloop
  endfacet
  facet normal 0.904918 0.425586 0
    outer loop
      vertex 12.3595 11.2402 12.5
      vertex 12.2526 11.4675 0
      vertex 12.2526 11.4675 12.5
    endloop
  endfacet
  facet normal 0.904918 0.425586 0
    outer loop
      vertex 12.2526 11.4675 0
      vertex 12.3595 11.2402 12.5
      vertex 12.3595 11.2402 0
    endloop
  endfacet
  facet normal 0.998018 0.0629237 0
    outer loop
      vertex 12.5 10.504 12.5
      vertex 12.4842 10.7546 0
      vertex 12.4842 10.7546 12.5
    endloop
  endfacet
  facet normal 0.998018 0.0629237 0
    outer loop
      vertex 12.4842 10.7546 0
      vertex 12.5 10.504 12.5
      vertex 12.5 10.504 0
    endloop
  endfacet
  facet normal 0.950967 0.309293 0
    outer loop
      vertex 12.4372 11.0013 12.5
      vertex 12.3595 11.2402 0
      vertex 12.3595 11.2402 12.5
    endloop
  endfacet
  facet normal 0.950967 0.309293 0
    outer loop
      vertex 12.3595 11.2402 0
      vertex 12.4372 11.0013 12.5
      vertex 12.4372 11.0013 0
    endloop
  endfacet
  facet normal -0.844219 -0.535999 0
    outer loop
      vertex -12.118 -11.6795 0
      vertex -12.2526 -11.4675 12.5
      vertex -12.2526 -11.4675 0
    endloop
  endfacet
  facet normal -0.844219 -0.535999 0
    outer loop
      vertex -12.2526 -11.4675 12.5
      vertex -12.118 -11.6795 0
      vertex -12.118 -11.6795 12.5
    endloop
  endfacet
  facet normal -0.950967 -0.309293 0
    outer loop
      vertex -12.3595 -11.2402 0
      vertex -12.4372 -11.0013 12.5
      vertex -12.4372 -11.0013 0
    endloop
  endfacet
  facet normal -0.950967 -0.309293 0
    outer loop
      vertex -12.4372 -11.0013 12.5
      vertex -12.3595 -11.2402 0
      vertex -12.3595 -11.2402 12.5
    endloop
  endfacet
  facet normal -0.998018 0.0629237 0
    outer loop
      vertex -12.5 10.504 0
      vertex -12.4842 10.7546 12.5
      vertex -12.4842 10.7546 0
    endloop
  endfacet
  facet normal -0.998018 0.0629237 0
    outer loop
      vertex -12.4842 10.7546 12.5
      vertex -12.5 10.504 0
      vertex -12.5 10.504 12.5
    endloop
  endfacet
  facet normal -0.982332 0.187149 0
    outer loop
      vertex -12.4842 10.7546 0
      vertex -12.4372 11.0013 12.5
      vertex -12.4372 11.0013 0
    endloop
  endfacet
  facet normal -0.982332 0.187149 0
    outer loop
      vertex -12.4372 11.0013 12.5
      vertex -12.4842 10.7546 0
      vertex -12.4842 10.7546 12.5
    endloop
  endfacet
  facet normal -0.844219 0.535999 0
    outer loop
      vertex -12.2526 11.4675 0
      vertex -12.118 11.6795 12.5
      vertex -12.118 11.6795 0
    endloop
  endfacet
  facet normal -0.844219 0.535999 0
    outer loop
      vertex -12.118 11.6795 12.5
      vertex -12.2526 11.4675 0
      vertex -12.2526 11.4675 12.5
    endloop
  endfacet
  facet normal -0.950967 0.309293 0
    outer loop
      vertex -12.4372 11.0013 0
      vertex -12.3595 11.2402 12.5
      vertex -12.3595 11.2402 0
    endloop
  endfacet
  facet normal -0.950967 0.309293 0
    outer loop
      vertex -12.3595 11.2402 12.5
      vertex -12.4372 11.0013 0
      vertex -12.4372 11.0013 12.5
    endloop
  endfacet
  facet normal -0.368299 0.929707 0
    outer loop
      vertex -11.118 12.4061 0
      vertex -11.3515 12.3136 12.5
      vertex -11.118 12.4061 12.5
    endloop
  endfacet
  facet normal -0.368299 0.929707 0
    outer loop
      vertex -11.3515 12.3136 12.5
      vertex -11.118 12.4061 0
      vertex -11.3515 12.3136 0
    endloop
  endfacet
  facet normal -0.248529 0.968625 0
    outer loop
      vertex -10.8748 12.4685 0
      vertex -11.118 12.4061 12.5
      vertex -10.8748 12.4685 12.5
    endloop
  endfacet
  facet normal -0.248529 0.968625 0
    outer loop
      vertex -11.118 12.4061 12.5
      vertex -10.8748 12.4685 0
      vertex -11.118 12.4061 0
    endloop
  endfacet
  facet normal 0.904918 -0.425586 0
    outer loop
      vertex 12.2526 -11.4675 12.5
      vertex 12.3595 -11.2402 0
      vertex 12.3595 -11.2402 12.5
    endloop
  endfacet
  facet normal 0.904918 -0.425586 0
    outer loop
      vertex 12.3595 -11.2402 0
      vertex 12.2526 -11.4675 12.5
      vertex 12.2526 -11.4675 0
    endloop
  endfacet
  facet normal 0.770468 -0.637478 0
    outer loop
      vertex 11.9579 -11.873 12.5
      vertex 12.118 -11.6795 0
      vertex 12.118 -11.6795 12.5
    endloop
  endfacet
  facet normal 0.770468 -0.637478 0
    outer loop
      vertex 12.118 -11.6795 0
      vertex 11.9579 -11.873 12.5
      vertex 11.9579 -11.873 0
    endloop
  endfacet
  facet normal 0.684669 -0.728854 0
    outer loop
      vertex 11.7748 -12.045 0
      vertex 11.9579 -11.873 12.5
      vertex 11.7748 -12.045 12.5
    endloop
  endfacet
  facet normal 0.684669 -0.728854 0
    outer loop
      vertex 11.9579 -11.873 12.5
      vertex 11.7748 -12.045 0
      vertex 11.9579 -11.873 0
    endloop
  endfacet
  facet normal 0.982332 0.187149 0
    outer loop
      vertex 12.4842 10.7546 12.5
      vertex 12.4372 11.0013 0
      vertex 12.4372 11.0013 12.5
    endloop
  endfacet
  facet normal 0.982332 0.187149 0
    outer loop
      vertex 12.4372 11.0013 0
      vertex 12.4842 10.7546 12.5
      vertex 12.4842 10.7546 0
    endloop
  endfacet
  facet normal -0.982332 -0.187149 0
    outer loop
      vertex -12.4372 -11.0013 0
      vertex -12.4842 -10.7546 12.5
      vertex -12.4842 -10.7546 0
    endloop
  endfacet
  facet normal -0.982332 -0.187149 0
    outer loop
      vertex -12.4842 -10.7546 12.5
      vertex -12.4372 -11.0013 0
      vertex -12.4372 -11.0013 12.5
    endloop
  endfacet
  facet normal -0.998018 -0.0629237 0
    outer loop
      vertex -12.4842 -10.7546 0
      vertex -12.5 -10.504 12.5
      vertex -12.5 -10.504 0
    endloop
  endfacet
  facet normal -0.998018 -0.0629237 0
    outer loop
      vertex -12.5 -10.504 12.5
      vertex -12.4842 -10.7546 0
      vertex -12.4842 -10.7546 12.5
    endloop
  endfacet
  facet normal -0.904918 0.425586 0
    outer loop
      vertex -12.3595 11.2402 0
      vertex -12.2526 11.4675 12.5
      vertex -12.2526 11.4675 0
    endloop
  endfacet
  facet normal -0.904918 0.425586 0
    outer loop
      vertex -12.2526 11.4675 12.5
      vertex -12.3595 11.2402 0
      vertex -12.3595 11.2402 12.5
    endloop
  endfacet
  facet normal -0.684669 0.728854 0
    outer loop
      vertex -11.7748 12.045 0
      vertex -11.9579 11.873 12.5
      vertex -11.7748 12.045 12.5
    endloop
  endfacet
  facet normal -0.684669 0.728854 0
    outer loop
      vertex -11.9579 11.873 12.5
      vertex -11.7748 12.045 0
      vertex -11.9579 11.873 0
    endloop
  endfacet
  facet normal -0.587698 0.80908 0
    outer loop
      vertex -11.5716 12.1926 0
      vertex -11.7748 12.045 12.5
      vertex -11.5716 12.1926 12.5
    endloop
  endfacet
  facet normal -0.587698 0.80908 0
    outer loop
      vertex -11.7748 12.045 12.5
      vertex -11.5716 12.1926 0
      vertex -11.7748 12.045 0
    endloop
  endfacet
  facet normal 0.368299 -0.929707 0
    outer loop
      vertex 11.118 -12.4061 0
      vertex 11.3515 -12.3136 12.5
      vertex 11.118 -12.4061 12.5
    endloop
  endfacet
  facet normal 0.368299 -0.929707 0
    outer loop
      vertex 11.3515 -12.3136 12.5
      vertex 11.118 -12.4061 0
      vertex 11.3515 -12.3136 0
    endloop
  endfacet
  facet normal 1 -0 0
    outer loop
      vertex -10.25 7.5 12.5
      vertex -10.25 12.5 9.5
      vertex -10.25 12.5 12.5
    endloop
  endfacet
  facet normal 1 0 0
    outer loop
      vertex -10.25 12.5 9.5
      vertex -10.25 7.5 12.5
      vertex -10.25 7.5 9.5
    endloop
  endfacet
  facet normal 1 -0 0
    outer loop
      vertex -10.25 -12.5 12.5
      vertex -10.25 2 9.5
      vertex -10.25 2 12.5
    endloop
  endfacet
  facet normal 1 0 0
    outer loop
      vertex -10.25 2 9.5
      vertex -10.25 -12.5 12.5
      vertex -10.25 -12.5 9.5
    endloop
  endfacet
  facet normal -1 0 0
    outer loop
      vertex 10.25 7.5 9.5
      vertex 10.25 12.5 12.5
      vertex 10.25 12.5 9.5
    endloop
  endfacet
  facet normal -1 -0 0
    outer loop
      vertex 10.25 12.5 12.5
      vertex 10.25 7.5 9.5
      vertex 10.25 7.5 12.5
    endloop
  endfacet
  facet normal -1 0 0
    outer loop
      vertex 10.25 -12.5 9.5
      vertex 10.25 2 12.5
      vertex 10.25 2 9.5
    endloop
  endfacet
  facet normal -1 -0 0
    outer loop
      vertex 10.25 2 12.5
      vertex 10.25 -12.5 9.5
      vertex 10.25 -12.5 12.5
    endloop
  endfacet
  facet normal 0 0 1
    outer loop
      vertex -5.35742 0.676799 9.5
      vertex -10.25 2 9.5
      vertex -5.4 0 9.5
    endloop
  endfacet
  facet normal 0 0 1
    outer loop
      vertex -5.23035 1.34293 9.5
      vertex -10.25 2 9.5
      vertex -5.35742 0.676799 9.5
    endloop
  endfacet
  facet normal 0 0 1
    outer loop
      vertex -5.02079 1.98787 9.5
      vertex -10.25 2 9.5
      vertex -5.23035 1.34293 9.5
    endloop
  endfacet
  facet normal -0 0 1
    outer loop
      vertex -10.25 2 9.5
      vertex -5.02079 1.98787 9.5
      vertex -5.01509 2 9.5
    endloop
  endfacet
  facet normal 0 0 1
    outer loop
      vertex 5.35742 -0.676799 9.5
      vertex 10.25 2 9.5
      vertex 5.4 0 9.5
    endloop
  endfacet
  facet normal 0 0 1
    outer loop
      vertex 10.25 2 9.5
      vertex 5.35742 0.676799 9.5
      vertex 5.4 0 9.5
    endloop
  endfacet
  facet normal 0 0 1
    outer loop
      vertex 10.25 2 9.5
      vertex 5.23035 1.34293 9.5
      vertex 5.35742 0.676799 9.5
    endloop
  endfacet
  facet normal 0 0 1
    outer loop
      vertex 10.25 2 9.5
      vertex 5.02079 1.98787 9.5
      vertex 5.23035 1.34293 9.5
    endloop
  endfacet
  facet normal 0 -0 1
    outer loop
      vertex 5.02079 1.98787 9.5
      vertex 10.25 2 9.5
      vertex 5.01509 2 9.5
    endloop
  endfacet
  facet normal 0 0 1
    outer loop
      vertex 5.23035 -1.34293 9.5
      vertex 10.25 2 9.5
      vertex 5.35742 -0.676799 9.5
    endloop
  endfacet
  facet normal 0 0 1
    outer loop
      vertex 5.02079 -1.98787 9.5
      vertex 10.25 2 9.5
      vertex 5.23035 -1.34293 9.5
    endloop
  endfacet
  facet normal 0 0 1
    outer loop
      vertex 10.25 2 9.5
      vertex 5.02079 -1.98787 9.5
      vertex 10.25 -12.5 9.5
    endloop
  endfacet
  facet normal -0 0 1
    outer loop
      vertex 4.73206 -2.60147 9.5
      vertex 10.25 -12.5 9.5
      vertex 5.02079 -1.98787 9.5
    endloop
  endfacet
  facet normal -0 0 1
    outer loop
      vertex 4.36869 -3.17404 9.5
      vertex 10.25 -12.5 9.5
      vertex 4.73206 -2.60147 9.5
    endloop
  endfacet
  facet normal -0 0 1
    outer loop
      vertex 3.93643 -3.69655 9.5
      vertex 10.25 -12.5 9.5
      vertex 4.36869 -3.17404 9.5
    endloop
  endfacet
  facet normal -0 0 1
    outer loop
      vertex 3.44209 -4.16077 9.5
      vertex 10.25 -12.5 9.5
      vertex 3.93643 -3.69655 9.5
    endloop
  endfacet
  facet normal -0 0 1
    outer loop
      vertex 2.89346 -4.55937 9.5
      vertex 10.25 -12.5 9.5
      vertex 3.44209 -4.16077 9.5
    endloop
  endfacet
  facet normal -0 0 1
    outer loop
      vertex 2.29921 -4.88607 9.5
      vertex 10.25 -12.5 9.5
      vertex 2.89346 -4.55937 9.5
    endloop
  endfacet
  facet normal -0 0 1
    outer loop
      vertex 1.66869 -5.1357 9.5
      vertex 10.25 -12.5 9.5
      vertex 2.29921 -4.88607 9.5
    endloop
  endfacet
  facet normal -0 0 1
    outer loop
      vertex 1.01186 -5.30435 9.5
      vertex 10.25 -12.5 9.5
      vertex 1.66869 -5.1357 9.5
    endloop
  endfacet
  facet normal -0 0 1
    outer loop
      vertex 0.339068 -5.38934 9.5
      vertex 10.25 -12.5 9.5
      vertex 1.01186 -5.30435 9.5
    endloop
  endfacet
  facet normal -0 0 1
    outer loop
      vertex -0.339068 -5.38934 9.5
      vertex 10.25 -12.5 9.5
      vertex 0.339068 -5.38934 9.5
    endloop
  endfacet
  facet normal 0 0 1
    outer loop
      vertex -10.25 -12.5 9.5
      vertex -0.339068 -5.38934 9.5
      vertex -1.01186 -5.30435 9.5
    endloop
  endfacet
  facet normal 0 0 1
    outer loop
      vertex -10.25 -12.5 9.5
      vertex -1.01186 -5.30435 9.5
      vertex -1.66869 -5.1357 9.5
    endloop
  endfacet
  facet normal 0 0 1
    outer loop
      vertex -10.25 -12.5 9.5
      vertex -1.66869 -5.1357 9.5
      vertex -2.29921 -4.88607 9.5
    endloop
  endfacet
  facet normal 0 0 1
    outer loop
      vertex -10.25 -12.5 9.5
      vertex -2.29921 -4.88607 9.5
      vertex -2.89346 -4.55937 9.5
    endloop
  endfacet
  facet normal 0 0 1
    outer loop
      vertex -10.25 2 9.5
      vertex -5.35742 -0.676799 9.5
      vertex -5.4 0 9.5
    endloop
  endfacet
  facet normal 0 0 1
    outer loop
      vertex -10.25 2 9.5
      vertex -5.23035 -1.34293 9.5
      vertex -5.35742 -0.676799 9.5
    endloop
  endfacet
  facet normal 0 0 1
    outer loop
      vertex -10.25 2 9.5
      vertex -5.02079 -1.98787 9.5
      vertex -5.23035 -1.34293 9.5
    endloop
  endfacet
  facet normal 0 0 1
    outer loop
      vertex -10.25 -12.5 9.5
      vertex -5.02079 -1.98787 9.5
      vertex -10.25 2 9.5
    endloop
  endfacet
  facet normal 0 0 1
    outer loop
      vertex -5.02079 -1.98787 9.5
      vertex -10.25 -12.5 9.5
      vertex -4.73206 -2.60147 9.5
    endloop
  endfacet
  facet normal 0 0 1
    outer loop
      vertex -4.73206 -2.60147 9.5
      vertex -10.25 -12.5 9.5
      vertex -4.36869 -3.17404 9.5
    endloop
  endfacet
  facet normal 0 0 1
    outer loop
      vertex -4.36869 -3.17404 9.5
      vertex -10.25 -12.5 9.5
      vertex -3.93643 -3.69655 9.5
    endloop
  endfacet
  facet normal 0 0 1
    outer loop
      vertex -0.339068 -5.38934 9.5
      vertex -10.25 -12.5 9.5
      vertex 10.25 -12.5 9.5
    endloop
  endfacet
  facet normal 0 0 1
    outer loop
      vertex -3.44209 -4.16077 9.5
      vertex -10.25 -12.5 9.5
      vertex -2.89346 -4.55937 9.5
    endloop
  endfacet
  facet normal 0 0 1
    outer loop
      vertex -3.93643 -3.69655 9.5
      vertex -10.25 -12.5 9.5
      vertex -3.44209 -4.16077 9.5
    endloop
  endfacet
  facet normal -0 0 1
    outer loop
      vertex -10.25 12.5 9.5
      vertex 10.25 7.5 9.5
      vertex 10.25 12.5 9.5
    endloop
  endfacet
  facet normal 0 0 1
    outer loop
      vertex 10.25 7.5 9.5
      vertex -10.25 12.5 9.5
      vertex -10.25 7.5 9.5
    endloop
  endfacet
  facet normal 0 -1 0
    outer loop
      vertex -12.5 7.5 12.5
      vertex -10.25 7.5 9.5
      vertex -10.25 7.5 12.5
    endloop
  endfacet
  facet normal 0 -1 -0
    outer loop
      vertex -10.25 7.5 9.5
      vertex -12.5 7.5 2
      vertex 10.25 7.5 9.5
    endloop
  endfacet
  facet normal 0 -1 0
    outer loop
      vertex -12.5 7.5 2
      vertex -10.25 7.5 9.5
      vertex -12.5 7.5 12.5
    endloop
  endfacet
  facet normal 0 -1 0
    outer loop
      vertex 10.25 7.5 9.5
      vertex 12.5 7.5 12.5
      vertex 10.25 7.5 12.5
    endloop
  endfacet
  facet normal 0 -1 0
    outer loop
      vertex 10.25 7.5 9.5
      vertex 12.5 7.5 2
      vertex 12.5 7.5 12.5
    endloop
  endfacet
  facet normal 0 -1 0
    outer loop
      vertex 12.5 7.5 2
      vertex 10.25 7.5 9.5
      vertex -12.5 7.5 2
    endloop
  endfacet
  facet normal 0 1 0
    outer loop
      vertex 12.5 2 12.5
      vertex 10.25 2 9.5
      vertex 10.25 2 12.5
    endloop
  endfacet
  facet normal 0 1 0
    outer loop
      vertex 10.25 2 9.5
      vertex 5.01509 2 6.8
      vertex 5.01509 2 9.5
    endloop
  endfacet
  facet normal 0 1 0
    outer loop
      vertex 5.01509 2 6.8
      vertex 12.5 2 2
      vertex -5.01509 2 6.8
    endloop
  endfacet
  facet normal 0 1 0
    outer loop
      vertex 10.25 2 9.5
      vertex 12.5 2 2
      vertex 5.01509 2 6.8
    endloop
  endfacet
  facet normal 0 1 -0
    outer loop
      vertex 12.5 2 2
      vertex 10.25 2 9.5
      vertex 12.5 2 12.5
    endloop
  endfacet
  facet normal 0 1 0
    outer loop
      vertex -5.01509 2 9.5
      vertex -5.01509 2 6.8
      vertex -10.25 2 9.5
    endloop
  endfacet
  facet normal 0 1 -0
    outer loop
      vertex -10.25 2 9.5
      vertex -12.5 2 12.5
      vertex -10.25 2 12.5
    endloop
  endfacet
  facet normal 0 1 0
    outer loop
      vertex -10.25 2 9.5
      vertex -12.5 2 2
      vertex -12.5 2 12.5
    endloop
  endfacet
  facet normal 0 1 0
    outer loop
      vertex -5.01509 2 6.8
      vertex -12.5 2 2
      vertex -10.25 2 9.5
    endloop
  endfacet
  facet normal 0 1 0
    outer loop
      vertex -12.5 2 2
      vertex -5.01509 2 6.8
      vertex 12.5 2 2
    endloop
  endfacet
  facet normal -0 0 1
    outer loop
      vertex -12.5 7.5 2
      vertex 12.5 2 2
      vertex 12.5 7.5 2
    endloop
  endfacet
  facet normal 0 0 1
    outer loop
      vertex 12.5 2 2
      vertex -12.5 7.5 2
      vertex -12.5 2 2
    endloop
  endfacet
endsolid OpenSCAD_Model
